<svg xmlns="http://www.w3.org/2000/svg" xmlns:xlink="http://www.w3.org/1999/xlink" version="1.1" width="1000" height="1000" viewBox="0 0 1000 1000" xml:space="preserve">
<desc>Created with Fabric.js 3.5.0</desc>
<defs>
</defs>
<rect x="0" y="0" width="100%" height="100%" fill="rgba(255,255,255,0)"/>
<g transform="matrix(1.2511 0 0 1.2511 497.9014 496.6116)" id="304224">
<g style="" vector-effect="non-scaling-stroke">
		<g transform="matrix(1 0 0 1 0.035 -120.6039)" id="Layer_2-2">
<path style="stroke: none; stroke-width: 1; stroke-dasharray: none; stroke-linecap: butt; stroke-dashoffset: 0; stroke-linejoin: miter; stroke-miterlimit: 4; is-custom-font: none; font-file-url: none; fill: rgb(255,253,253); fill-rule: nonzero; opacity: 1;" transform=" translate(-245.595, -275.8761)" d="M 203.67 0.19 l 2.13 0.27 c 2.48 0.31 5.01 0.88 7.3 1.67 c 0.49 0.17 2.99 1.01 3 1.01 c 12.65 5.89 7.82 27.39 4.79 37.91 c -1.81 6.29 -4.42 12.33 -6.71 18.44 c 0 0.02 0 0.03 0.02 0.03 l 20.82 -1.93 c 41.28 -2.94 81.99 6.61 122.9 9.62 c 27.87 2.05 42.5 -4.35 60.96 -24.95 c 1.08 -1.21 6.34 -8.56 7.18 -8.65 c 0 0 0.01 0 0.02 0.01 c 2.34 6.26 4.12 12.69 4.58 19.41 c 0.17 2.52 -0.2 5.18 -0.02 7.71 c 0.05 0.71 -0.37 1.39 0.71 1.19 c 9.12 -8.02 17.45 -16.87 24.92 -26.45 c 3.58 -4.59 6.68 -9.64 10.23 -14.22 c 0.31 -0.4 0 -0.88 1.1 -0.6 c 0.06 4.98 1.24 10.17 1.46 15.1 c 1.52 34.09 -15.46 68.53 -37.92 93.11 c -0.17 0.18 -0.29 0.4 -0.34 0.65 l -0.09 0.36 c -0.07 0.3 -0.05 0.61 0.06 0.89 c 22.85 58.44 43.31 119.08 53.96 181.17 c 2.78 16.23 5.78 34.56 5.91 50.97 c 0 1.2 -0.37 3.03 0.47 3.83 c 0 0 0 0.01 0 0.02 v 31.66 s 0 0.01 0 0.02 c -0.82 0.66 -0.46 2.31 -0.47 3.35 c -0.24 30.82 -13.27 67.21 -34.07 90.01 c -31.16 34.15 -91.4 49.28 -135.85 55.43 c -3.14 0.43 -6.44 0.59 -9.6 0.96 c -36.38 4.3 -69.66 5 -106.08 0.48 c -2.11 -0.26 -4.72 -0.19 -6.72 -0.48 c -45.22 -6.47 -115.93 -25.09 -150.25 -55.91 C -6.75 443 3.02 339.36 13.12 273.44 c 4.18 -27.29 9.82 -54.35 16.22 -81.17 c 0 0 0 -0.01 0 -0.02 c -7.7 -12.48 -16.53 -24.51 -22.47 -38 c -3.35 -7.62 -5.28 -15.04 -6.79 -23.21 c 0 0 0 0 0 0 v -9.12 s 0 0 0 0 c 1.58 -8.47 3.68 -16.41 7.12 -24.32 c 0.88 -2.03 6.52 -11.83 5.79 -13.05 c 0 0 0 0 -0.01 -0.01 c -14.87 -6.43 -1.26 -30.6 11.79 -28.81 c 3.53 0.48 5.17 3.24 8.16 4.29 c 0 0 0 0 0 0 c 19.16 -10.39 45.1 -19.47 66.99 -14.18 c 12.49 3.02 23.78 11.24 31.42 21.34 c 0 0 0.02 0 0.03 0 c 12.28 -24.83 24.85 -54.72 52.67 -65.23 l 3.64 -0.98 L 193.04 0 h 0 s 7.56 0 7.56 0 l 3.07 0.19 Z M 148.9 77.94 c 0.12 -0.15 0.29 -0.26 0.46 -0.34 c 8.21 -4.12 17.45 -6.41 26.3 -8.82 s 22.42 -4.37 30.73 -7.67 c 1.1 -0.44 1.49 -0.66 2.23 -1.61 c 1.78 -2.33 4.33 -8.88 5.43 -11.85 c 5.47 -14.83 9.89 -39.13 -12.18 -41.34 c -34.73 -3.48 -53.94 38.04 -64.38 64.74 c 0 0 0 0 0 0 c -0.76 3.44 -6.64 8.25 -10.01 3.67 c -0.83 -1.12 -8.17 -10.05 -10.23 -11.81 c -16 -13.62 -23.27 -15.53 -44.31 -12.36 c -14.3 2.15 -30.38 7.17 -42.38 15.22 c -3.39 -8.42 -12.57 -6.48 -16.96 0.32 c -4.89 7.57 -4.59 15.31 5.65 16.71 c 0.02 0 0.02 0.02 0.02 0.03 c -10.9 17.6 -16.99 39.76 -11.26 60.22 c 4.69 16.71 15.7 32.13 25.76 45.99 c 0 0 0 0 0 0 c 1.04 0.61 3.12 -0.85 4.19 -1.34 c 0.02 0 0.03 0 0.03 0.03 c -7.5 30.83 -14.07 61.95 -18.63 93.4 c -9.26 63.96 -18.18 164.02 38.09 209.43 c 32.43 26.17 89.94 41.07 130.7 48.34 c 67.34 12.01 160.06 4.97 222.65 -23.76 c 84.38 -38.73 79.94 -131.33 65.29 -209.93 c -11.26 -60.4 -31.37 -119.51 -54.08 -176.37 c -0.08 -0.42 0.06 -0.76 0.23 -1.13 c 0.43 -0.93 5.75 -6.01 6.96 -7.47 c 18.49 -22.35 32.02 -49.8 32.65 -79.37 c 0 -0.02 -0.02 -0.03 -0.04 -0.02 c -4.1 3.9 -7.37 8.75 -11.23 12.93 c -8.77 9.5 -18.78 17.83 -30.21 23.97 c -0.02 0 -0.04 0 -0.03 -0.02 l 3.11 -17.47 s 0 0 0 0 l -0.48 -11.22 s -0.02 -0.03 -0.04 -0.01 c -11.66 11.61 -27.73 24.47 -44.85 25.88 c -24.85 2.04 -56.72 -5.21 -82.08 -7.67 c -7.09 -0.69 -14.23 -1.31 -21.34 -1.45 c -0.01 0 -0.02 0 -0.02 0.02 c -0.04 1.82 0.07 3.67 0 5.49 c -0.77 20.97 0.25 42.24 0.98 63.35 c 0.28 8.09 0.34 16.14 0.94 24.24 c 0 0.01 0.01 0.02 0.02 0.02 c 12.06 -1.05 23.78 6.12 19.41 19.67 c -2.73 8.45 -9.14 8.94 -16.03 4.53 c -6.08 -3.89 -7.46 -10.72 -8.2 -17.46 c 0 -0.01 -0.02 -0.02 -0.03 -0.02 l -7.15 2.41 s -0.02 0.02 -0.01 0.03 c 3.8 10.81 6.71 24.88 1.99 35.8 c -5.1 11.79 -21.91 9.88 -24.44 -2.13 c -2.65 -12.62 4.27 -28.67 15.26 -35.45 c 0 0 0.01 -0.01 0 -0.02 c -4.39 -9.08 -11.94 -21.95 -23.06 -22.72 c 0 0 -0.01 0 -0.01 0 c -0.79 10.16 -2.11 30.72 -11.07 37.16 s -26.61 0.83 -28.17 -10.65 c -2.61 -19.3 16.9 -30.44 33.46 -32.28 c 0 0 0.02 0 0.02 -0.02 c 0.74 -8.33 0.37 -16.68 0.46 -25.04 c 0.07 -7.5 0.01 -19.76 -0.07 -27.26 c -0.07 -6.56 -0.1 -13.11 -0.38 -19.66 c 0 -0.01 -0.01 -0.02 -0.02 -0.02 c -27.39 1.78 -54.7 6.4 -80.62 15.36 c 0.4 -0.95 0.25 -2.28 0.97 -3.18 Z M 268.86 65.28 h -34.04 s -0.02 0.01 -0.02 0.02 l -0.02 72.13 s 0 0 0 0.01 c 0.13 0.38 5.45 1.68 6.59 2.15 c 9.24 3.77 16.02 15.41 21.07 23.56 c 0 0 0.02 0.01 0.03 0 l 7.86 -3.07 l 0.47 -0.96 s 0 0 0 -0.01 c -1.47 -19.04 -1.59 -38.08 -1.9 -57.14 c -0.02 -1.13 -0.5 -2.19 -0.52 -3.32 c -0.19 -11.11 -0.08 -22.29 0.5 -33.36 c 0 -0.01 0 -0.02 -0.02 -0.02 Z M 228.08 143.05 s 0 0 -0.02 0 c -12.02 2 -27.53 9.21 -27.85 23.26 c -0.25 11.05 15.9 15.32 21.63 7.7 c 3.01 -4.01 4.44 -15.42 5.2 -20.72 c 0.2 -1.39 1.4 -9.76 1.04 -10.23 Z M 277.54 164.16 s -0.02 0 -0.02 0.02 c 0.05 6.5 2.18 14.76 9.59 16.12 c 3.52 0.65 4.66 -6.41 4.21 -9.06 c -0.94 -5.59 -8.91 -7.58 -13.79 -7.08 Z M 259.07 171.38 c -0.38 0.09 -4.98 4.81 -5.54 5.51 c -4.98 6.22 -7.13 15.14 -6.25 23.03 s 11.8 9.03 14.63 1.19 c 2.65 -7.37 1.71 -20.34 -1.17 -27.61 c -0.25 -0.64 -0.69 -2.34 -1.67 -2.12 Z" stroke-linecap="round"/>
</g>
		<g transform="matrix(1 0 0 1 -133.4056 -300.35)" id="Layer_2-2">
<path style="stroke: none; stroke-width: 1; stroke-dasharray: none; stroke-linecap: butt; stroke-dashoffset: 0; stroke-linejoin: miter; stroke-miterlimit: 4; is-custom-font: none; font-file-url: none; fill: rgb(56,107,227); fill-rule: nonzero; opacity: 1;" transform=" translate(-112.1544, -96.13)" d="M 216.02 3.13 s -2.51 -0.84 -3 -1.01 c -2.29 -0.78 -4.82 -1.35 -7.3 -1.67 l -2.13 -0.27 c -0.84 -0.05 -2.22 -0.14 -3.07 -0.19 h -7.56 s 0 0 0 0 l -5.35 0.97 c -1.01 0.27 -2.64 0.71 -3.64 0.98 c -27.83 10.52 -40.4 40.41 -52.67 65.23 c 0 0.01 -0.02 0.01 -0.03 0 c -7.64 -10.1 -18.93 -18.32 -31.42 -21.34 c -21.9 -5.29 -47.83 3.79 -66.99 14.18 c 0 0 0 0 0 0 c -2.99 -1.06 -4.64 -3.81 -8.16 -4.29 c -13.05 -1.79 -26.66 22.38 -11.79 28.81 c 0 0 0.01 0 0.01 0.01 c 0.73 1.22 -4.9 11.02 -5.79 13.05 C 3.68 105.51 1.58 113.45 0 121.92 c 0 0 0 0 0 0 v 9.12 s 0 0 0 0 c 1.51 8.17 3.43 15.59 6.79 23.21 c 5.94 13.5 22.47 38 22.47 38 v 0.02 s 107.14 -57.16 107.14 -57.16 c 0.21 -2.31 -1.31 -19.75 1.69 -19.75 c 0.44 0 0.77 -2.15 1.15 -2.06 l 74.89 -53.78 s -0.03 -0.01 -0.02 -0.03 c 2.3 -6.1 4.9 -12.15 6.71 -18.44 c 3.04 -10.52 7.86 -32.03 -4.79 -37.91 Z" stroke-linecap="round"/>
</g>
		<g transform="matrix(1 0 0 1 2.6263 -110.3052)" id="Layer_2-2">
<path style="stroke: none; stroke-width: 1; stroke-dasharray: none; stroke-linecap: butt; stroke-dashoffset: 0; stroke-linejoin: miter; stroke-miterlimit: 4; is-custom-font: none; font-file-url: none; fill: rgb(231,137,0); fill-rule: nonzero; opacity: 1;" transform=" translate(-248.1862, -286.1748)" d="M 206.39 61.13 c -8.87 2.37 -21.83 4.41 -30.99 6.91 c -8.85 2.41 -17.79 4.81 -25.99 8.92 c -0.17 0.09 -0.93 0.63 -1.05 0.78 c -0.73 0.89 -0.03 2.45 -0.43 3.4 c 25.92 -8.96 53.23 -13.59 80.62 -15.36 c 0.01 0 0.02 0 0.02 0.02 c 0.28 6.55 0.31 13.11 0.38 19.66 c 0.08 7.5 0.14 19.76 0.07 27.26 c -0.08 8.36 0.28 16.71 -0.46 25.04 c 0 0 0 0.02 -0.02 0.02 c -16.56 1.84 -36.07 12.98 -33.46 32.28 c 1.56 11.48 19.19 17.11 28.17 10.65 c 8.95 -6.44 10.28 -27 11.07 -37.16 c 0 0 0 -0.01 0.01 -0.01 c 11.12 0.77 18.67 13.65 23.06 22.72 c 0 0 0 0.02 0 0.02 c -10.99 6.78 -17.92 22.83 -15.26 35.45 c 2.53 12.01 19.35 13.92 24.44 2.13 c 4.72 -10.92 1.81 -25 -1.99 -35.8 c 0 -0.01 0 -0.02 0.01 -0.03 l 7.15 -2.41 s 0.03 0 0.03 0.02 c 0.74 6.74 2.12 13.56 8.2 17.46 c 6.89 4.41 13.3 3.92 16.03 -4.53 c 4.38 -13.55 -7.35 -20.72 -19.41 -19.67 c -0.01 0 -0.02 0 -0.02 -0.02 c -0.6 -8.1 -0.66 -16.15 -0.94 -24.24 c -0.73 -21.1 -1.75 -42.38 -0.98 -63.35 c 0.07 -1.83 -0.04 -3.67 0 -5.49 c 0 -0.01 0.01 -0.02 0.02 -0.02 c 7.1 0.14 14.25 0.76 21.34 1.45 c 25.35 2.46 57.23 9.71 82.08 7.67 c 17.12 -1.4 33.19 -14.27 44.85 -25.88 c 0.01 -0.01 0.04 0 0.04 0.01 l 0.48 11.22 s 0 0 0 0 l -3.11 17.47 s 0.02 0.03 0.03 0.02 c 11.42 -6.14 21.44 -14.47 30.21 -23.97 c 3.86 -4.18 7.13 -9.02 11.23 -12.93 c 0.01 -0.01 0.04 0 0.04 0.02 c -0.63 29.57 -14.15 57.02 -32.65 79.37 c -1.2 1.46 -6.53 6.53 -6.96 7.47 c -0.17 0.37 -0.31 0.71 -0.23 1.13 c 22.72 56.86 42.82 115.97 54.08 176.37 c 14.65 78.6 19.1 171.2 -65.29 209.93 c -62.59 28.73 -155.31 35.78 -222.65 23.76 c -40.76 -7.27 -98.27 -22.18 -130.7 -48.34 C 1.18 445.17 10.1 345.1 19.36 281.15 c 4.55 -31.45 11.13 -62.57 18.63 -93.4 c 0 -0.02 -0.01 -0.03 -0.03 -0.03 c -1.08 0.49 -3.15 1.95 -4.19 1.34 c 0 0 0 0 0 0 l -4.43 3.23 s 0 0.01 0 0.02 c -6.4 26.82 -12.04 53.88 -16.22 81.17 c -10.1 65.92 -19.88 169.56 34.95 218.81 c 34.31 30.82 105.03 49.44 150.25 55.91 c 2 0.29 4.61 0.22 6.72 0.48 c 36.42 4.52 69.7 3.82 106.08 -0.48 c 3.16 -0.37 6.46 -0.53 9.6 -0.96 c 44.46 -6.14 104.69 -21.28 135.85 -55.43 c 20.8 -22.8 33.83 -59.19 34.07 -90.01 c 0 -1.05 -0.35 -2.7 0.47 -3.35 c 0 0 0 0 0 -0.02 v -31.66 s 0 -0.01 0 -0.02 c -0.84 -0.8 -0.46 -2.63 -0.47 -3.83 c -0.13 -16.41 -3.13 -34.74 -5.91 -50.97 c -10.65 -62.09 -31.11 -122.73 -53.96 -181.17 c -0.11 -0.28 -0.13 -0.59 -0.06 -0.89 l 0.09 -0.36 c 0.06 -0.24 0.18 -0.46 0.34 -0.65 c 22.46 -24.59 39.44 -59.03 37.92 -93.11 c -0.22 -4.93 -1.4 -10.12 -1.46 -15.1 c -1.11 -0.28 -0.79 0.21 -1.1 0.6 c -3.55 4.59 -6.65 9.63 -10.23 14.22 c -7.47 9.57 -15.8 18.42 -24.92 26.45 c -1.09 0.2 -0.66 -0.47 -0.71 -1.19 c -0.18 -2.52 0.19 -5.19 0.02 -7.71 c -0.46 -6.72 -2.24 -13.15 -4.58 -19.41 c 0 0 0 -0.01 -0.02 -0.01 c -0.84 0.09 -6.09 7.44 -7.18 8.65 c -18.46 20.6 -33.09 27 -60.96 24.95 c -40.92 -3 -81.62 -12.56 -122.9 -9.62 l -20.82 1.93 s -0.03 -0.01 -0.02 -0.03 M 227.04 153.31 c -0.76 5.3 -2.19 16.71 -5.2 20.72 c -5.73 7.62 -21.88 3.35 -21.63 -7.7 c 0.32 -14.05 15.83 -21.26 27.85 -23.26 c 0 0 0.01 0 0.02 0 c 0.35 0.47 -0.84 8.85 -1.04 10.23 Z M 261.91 201.13 c -2.83 7.85 -13.78 6.51 -14.63 -1.19 c -0.87 -7.89 1.27 -16.82 6.25 -23.03 c 0.56 -0.7 5.16 -5.42 5.54 -5.51 c 0.97 -0.22 1.41 1.48 1.67 2.12 c 2.87 7.26 3.82 20.24 1.17 27.61 Z M 270.8 159.16 l -0.47 0.96 l -7.86 3.07 s -0.02 0 -0.03 0 c -5.05 -8.14 -11.83 -19.79 -21.07 -23.56 c -1.13 -0.46 -6.46 -1.76 -6.59 -2.15 c 0 0 0 0 0 -0.01 l 0.02 -72.13 s 0 -0.02 0.02 -0.02 h 34.04 s 0.02 0 0.02 0.02 c -0.58 11.07 -0.69 22.25 -0.5 33.36 c 0.02 1.14 0.5 2.19 0.52 3.32 c 0.31 19.06 0.43 38.11 1.9 57.14 c 0 0 0 0 0 0.01 Z M 277.54 164.18 c 4.88 -0.51 12.85 1.49 13.79 7.08 c 0.45 2.65 -0.69 9.71 -4.21 9.06 c -7.42 -1.37 -9.54 -9.62 -9.59 -16.12 c 0 -0.01 0 -0.02 0.02 -0.02 Z" stroke-linecap="round"/>
</g>
		<g transform="matrix(1 0 0 1 -14.6501 41.145)" id="Layer_2-2">
<path style="stroke: none; stroke-width: 1; stroke-dasharray: none; stroke-linecap: butt; stroke-dashoffset: 0; stroke-linejoin: miter; stroke-miterlimit: 4; is-custom-font: none; font-file-url: none; fill: rgb(56,107,227); fill-rule: nonzero; opacity: 1;" transform=" translate(-230.9099, -437.625)" d="M 230.71 439.3 l 0.47 -3.35 c -0.82 0.66 -0.46 2.31 -0.47 3.35 Z" stroke-linecap="round"/>
</g>
		<g transform="matrix(1 0 0 1 14.2347 273.59)" id="Layer_2-2">
<path style="stroke: none; stroke-width: 1; stroke-dasharray: none; stroke-linecap: butt; stroke-dashoffset: 0; stroke-linejoin: miter; stroke-miterlimit: 4; is-custom-font: none; font-file-url: none; fill: rgb(3,1,5); fill-rule: nonzero; opacity: 1;" transform=" translate(-259.7947, -670.07)" d="M 320.72 547.2 c 14.9 8.2 31.9 14.12 46.4 22.96 c 6.76 4.12 11.56 6.82 4 13.77 c -8.13 7.47 -20.24 12.91 -29.73 18.52 c 0.03 1.8 0.56 3.68 2.13 4.72 c 5.07 -5.93 13.88 -0.74 16.65 4.98 c 4.71 9.74 4.11 25.95 -5.21 32.88 c -2.88 2.14 -5.77 2.15 -8.02 3.5 c -1.04 0.62 -1.22 1.74 -1.97 2.35 c -4.31 3.49 -10.28 5.74 -15.87 5.3 c -1.3 -0.1 -2.64 -0.93 -3.25 -0.88 c -0.77 0.06 -2.18 1.11 -3.49 1.29 c -11.06 1.58 -16.55 -8 -18.94 -17.23 l -18.7 0.95 l 6.25 82.09 c 1.63 -0.61 7.27 -0.95 8.44 -0.05 l 3.08 10.6 h 1.43 s 1.9 -15.16 1.9 -15.16 l 16.83 5.08 l -0.48 1.91 c 19.79 -7.19 37.81 -8.12 55.74 4.02 c 13.09 8.86 21.03 20.94 23.38 36.62 c 0.89 5.95 2.97 21.36 -3.63 24.53 c -3.32 1.6 -15.16 2.3 -19.33 2.51 c -1.53 0.07 -3.67 -0.45 -4.8 0.48 h -19.68 c -1.13 -0.92 -3.27 -0.42 -4.8 -0.48 c -20.41 -0.79 -50.41 -6.25 -68.96 -14.8 c -3.68 -1.69 -9.07 -4.1 -9.72 -8.52 c -1.46 -10.01 -2.59 -29.05 -1.49 -38.85 c 0.39 -3.49 3.47 -3.65 6.03 -5.01 l 0.24 -4.12 l -6.74 -80.86 l -20.64 -0.47 l 9.19 81.53 c 2.98 0.46 8.93 0.43 9.8 3.88 c 1.58 6.23 0.45 13.18 0.19 19.45 c -0.23 5.55 0.02 12.9 -0.95 18.25 c -0.28 1.52 -2.56 2.61 -3.82 3.38 c -2.93 1.78 -6.91 3.42 -10.1 4.78 c -33.69 14.3 -65.81 19.51 -102.46 16.09 c -8.91 -0.83 -30.64 -3.24 -31.92 -14.64 c -2.16 -19.17 3.78 -41.06 20.49 -51.99 c 22.49 -14.71 50.96 -7.64 73.83 2.3 l -1.15 -2.64 l 17.22 -5.99 c 0.11 2.26 0.25 4.66 0.54 6.9 c 0.21 1.6 0.23 3.83 1.14 5.1 c -0.25 -5.19 6.2 -6.42 10.32 -6.24 l -7.65 -80.43 l -12.03 -1.17 c -0.94 11.34 -7.1 26.32 -20.83 24.91 c -5.51 -0.57 -13.13 -0.61 -18.05 -2.58 c -0.92 -0.37 -1.7 -1.47 -2.21 -1.57 c -0.86 -0.17 -5.41 1.02 -7.64 0.86 c -15.59 -1.09 -18.09 -22.49 -12.61 -33.77 c 2.29 -4.72 9.07 -10.53 14.49 -7.46 c 2.16 1.22 2.03 5.11 3.96 2.11 c -1.13 -2.66 -0.51 -4.77 0.17 -7.42 c -8.53 -4.28 -18.63 -8.95 -25.91 -15.15 c -12.58 -10.7 -6.97 -17.64 4.37 -25.4 l 42.2 -24.76 c 2 0.29 4.61 0.22 6.72 0.48 c -0.6 8.71 -0.28 17.43 -0.46 26.18 c -0.33 16.24 -1.1 32.71 -0.02 48.95 c 0.11 1.64 -0.44 5.8 0.47 6.73 c 0.68 0.69 7.78 1.49 9.37 1.67 c 9.88 1.08 19.87 1.11 29.78 1.42 c 21.08 0.66 43.79 1.76 64.79 -0.46 c 0.55 -0.06 2.04 -0.22 2.17 -0.8 l -0.02 -84.16 c 3.16 -0.37 6.46 -0.53 9.6 -0.96 Z M 317.36 589.92 h 8.88 c 1.39 0 3.56 1.86 5.63 1.34 s 13.39 -7.34 16.05 -8.94 c 0.76 -0.46 3.68 -1.87 3.5 -2.69 c -0.24 -1.09 -3.84 -2.71 -4.94 -3.24 c -9.35 -4.44 -19.86 -7.56 -29.12 -12.4 v 25.92 Z M 198.32 570.72 l -27.77 17.1 c 0.15 1.74 1.61 2.4 2.85 3.26 c 2.33 1.61 18.04 10.34 19.99 10.73 c 1.64 0.33 3.37 -0.28 4.93 0.59 v -31.68 Z M 317.36 594.72 c -0.01 0.16 0 0.32 0 0.48 c -0.05 0.95 0.03 1.92 0 2.88 c -0.02 0.8 0.01 1.6 0 2.4 c -0.11 7.92 0.06 15.86 0.02 23.78 c -1.03 4.33 0.19 9.08 -1.7 13.18 c -2.44 1.21 -5.25 1.23 -7.92 1.44 c -0.63 0.05 -1.29 -0.04 -1.92 0 c 1 7.7 7.01 17.14 15.97 15.25 c 0.91 -0.19 1.79 -1.13 2.58 -1.21 c 0.84 -0.08 2.11 0.77 3.29 0.84 c 5.13 0.34 9.3 -0.37 13.64 -3.17 c 3.58 -2.31 3.46 -2.57 7.59 -4.41 c 6.39 -2.86 8.75 -7.72 10.7 -14.02 c 0.04 -0.15 -0.04 -0.33 0 -0.48 c 0.01 -0.04 0.41 -0.19 0.48 -0.48 c 1.53 -6.38 0.71 -14.03 -3.36 -19.44 c -3.02 -4.02 -11.13 -6.74 -12.48 -0.24 c -1.1 -1.48 -2.5 -2.11 -3.84 -4.8 c -2.41 -4.84 -1.79 -5.98 -6.24 -10.08 s -7.56 -5.43 -13.68 -4.8 c -2.71 0.28 -2.9 0.43 -3.12 2.88 Z M 174.8 625.92 c 0.28 -4.73 -5.22 -6.07 -8.64 -3.84 c -1.89 1.23 -4.94 5.7 -5.85 7.83 c -4.17 9.83 -1.05 25.47 11.37 26.72 c 2.53 0.26 5.62 -0.39 8.05 0.11 c 1.45 0.3 3.94 2.16 5.85 2.79 c 4.71 1.54 6.67 0.56 10.53 0.95 c 1.09 0.11 1.8 1.03 3.38 0.99 c 2.45 -0.06 9.11 -3.17 11.05 -4.84 c 3.46 -2.97 5.58 -8.44 6.36 -12.84 c 0.36 -2.05 1.49 -5.53 -0.83 -5.87 c -2.96 -0.44 -14.84 -0.82 -16.24 -3.2 c -0.84 -1.42 -1.43 -9.72 -1.54 -11.9 c -0.26 -5.5 0.27 -11.08 0.02 -16.58 c -0.04 -0.8 0.03 -1.61 0 -2.4 c -8.58 -0.32 -19.14 5.22 -19.73 14.64 c -0.07 1.06 0.57 2.23 0.28 3.09 s -2.94 4.12 -4.08 4.34 Z M 225.04 737.93 c -2.7 -2.56 -6.6 -8.34 -9.09 -9.87 c -9.41 -5.75 -33.22 -12.36 -44.24 -12.88 c -29.77 -1.4 -52.02 20.16 -51.16 50.2 c 0.27 9.45 3.47 12.87 12.13 15.7 c 21.18 6.94 60.11 4.97 81.69 -0.64 c 13.06 -3.4 33.26 -10.36 44.76 -17.16 c 4.51 -2.67 4.56 -3.09 4.95 -8.49 c 0.59 -8.15 0.96 -18.31 0.02 -26.41 c -0.13 -1.11 -0.3 -1.9 -1.27 -2.57 c -3.48 -2.41 -18.6 -2.95 -22.98 -2.46 c -5.48 0.61 -3.32 3.32 -6.02 5.5 c -1.01 0.81 -2.53 1.3 -3.82 1.22 c -0.01 6.85 7.55 4.51 12.11 3.71 c 3.47 -0.61 6.86 -2.11 10.45 -1.79 c 0.86 0.88 -1.86 5.35 -2.49 6.4 c -1.89 3.17 -4.74 6.39 -6.92 9.41 c -0.91 0.22 -15.22 -6.93 -16.77 -8.11 c -0.68 -0.52 -0.87 -1.31 -1.35 -1.77 Z M 361.04 723.84 c -10.67 -3.1 -22.02 -1.27 -32.28 2.52 c -2.37 0.88 -9.97 3.9 -11.66 5.14 c -2.54 1.88 -6.2 8.5 -9.23 11.06 c -4.27 3.61 -11.86 5.71 -16.76 8.55 c -0.78 0.07 -1.14 -0.68 -1.58 -1.14 c -1.37 -1.42 -9.78 -13.54 -8.65 -14.62 c 6.23 0.18 12.41 2.18 18.58 3.24 l 3.5 -1.33 c 0.38 -1.59 -1.12 -0.63 -1.93 -1.18 c -1.94 -1.3 -0.39 -10.77 -4.53 -11.32 s -20.49 1.43 -23.76 4.12 c -2.33 1.92 -2.01 9.46 -1.96 12.48 c 0.08 5.52 0.52 12.19 0.99 17.73 c 0.28 3.31 0.35 9.2 2.56 11.6 c 4.88 5.29 29.03 12.24 36.7 13.94 c 21.42 4.75 56.05 7.22 77.47 3.37 c 6.58 -1.18 9.76 -1.06 10.4 -8.32 c 2.08 -23.56 -10.84 -43.31 -31.62 -53.46 c -2.21 -1.08 -3.87 -1.71 -6.24 -2.4 Z M 232.4 735.85 l -2.88 -0.26 l -1.41 3.09 l 2.38 0.79 l 1.91 -3.62 Z M 302.97 743.04 l 2.87 -1.69 c -0.75 -1.85 -2.58 -3.54 -4.35 -1.85 l 1.48 3.55 Z" stroke-linecap="round"/>
</g>
		<g transform="matrix(1 0 0 1 2.9146 -103.8235)" id="Layer_2-2">
<path style="stroke: none; stroke-width: 1; stroke-dasharray: none; stroke-linecap: butt; stroke-dashoffset: 0; stroke-linejoin: miter; stroke-miterlimit: 4; is-custom-font: none; font-file-url: none; fill: rgb(252,223,107); fill-rule: nonzero; opacity: 1;" transform=" translate(-248.4746, -292.6565)" d="M 78.8 166.08 c 19.33 -12.1 27.81 -21.45 41.19 -39.69 c 9.73 -13.26 21.53 -30.21 27.93 -45.27 c 25.93 -8.96 53.25 -13.59 80.64 -15.36 c 0.37 8.4 0.31 16.81 0.46 25.22 c 0.13 7.13 0.09 13.96 0 21.08 c -0.11 8.58 0.29 17.15 -0.46 25.7 c -16.56 1.84 -36.09 12.98 -33.47 32.28 c 1.56 11.48 19.19 17.11 28.17 10.65 s 10.28 -27.02 11.07 -37.17 c 11.13 0.77 18.69 13.66 23.08 22.74 c -11 6.78 -17.93 22.84 -15.27 35.46 s 19.35 13.92 24.44 2.13 c 4.73 -10.93 1.8 -25.01 -2 -35.82 l 7.19 -2.42 c 0.74 6.75 2.11 13.59 8.2 17.48 c 6.89 4.41 13.3 3.92 16.03 -4.53 c 4.38 -13.56 -7.36 -20.73 -19.43 -19.66 c -0.6 -8.1 -0.66 -16.16 -0.94 -24.26 c -0.73 -21.1 -1.75 -42.38 -0.98 -63.35 c 0.07 -1.84 -0.04 -3.68 0 -5.52 c 7.11 0.14 14.26 0.76 21.36 1.45 c 25.35 2.46 57.23 9.71 82.08 7.67 c 17.13 -1.4 33.22 -14.29 44.88 -25.91 l 0.48 11.27 l -3.12 17.52 c 11.44 -6.14 21.47 -14.48 30.25 -23.99 c 3.87 -4.19 7.15 -9.06 11.27 -12.97 c -0.61 29.59 -14.14 57.07 -32.65 79.43 c -1.2 1.46 -6.53 6.53 -6.96 7.47 c -0.17 0.37 -0.31 0.71 -0.23 1.13 c 22.72 56.86 42.82 115.97 54.08 176.37 c 14.65 78.6 19.1 171.2 -65.29 209.93 c -62.59 28.73 -155.31 35.78 -222.65 23.76 c -40.76 -7.27 -98.27 -22.18 -130.7 -48.34 C 1.18 445.14 10.1 345.08 19.36 281.12 c 4.56 -31.46 11.14 -62.6 18.64 -93.44 c 8.8 -3.9 17.4 -8.5 25.92 -12.96 M 50.46 337.66 c 1.66 -37.01 6.56 -77.83 14.65 -113.99 M 416.1 170.02 c -1.46 0.33 -3.36 2.48 -3.81 3.87 c -1.45 4.43 1.18 7.67 2.52 11.62 c 7.12 20.98 11.55 42.47 18.1 63.5 c 1.54 4.95 4.99 14.12 11.66 12.88 c 8.7 -1.61 5.24 -15.36 3.98 -21.32 c -3.58 -16.93 -10.05 -39.38 -16.73 -55.27 c -2.75 -6.54 -6.65 -17.35 -15.73 -15.27 Z M 344.72 257.28 c -2.65 1.72 -5.4 4.71 -6.35 7.81 c -2.31 7.59 9.14 1.64 12.77 0.76 c 7.09 -1.71 12.32 -1.71 19.5 -1.86 l 3.36 0.48 c 1.06 -5.13 -4.06 -9.69 -8.31 -11.61 c -6.92 -3.13 -15.59 -0.62 -20.97 4.41 Z M 152.62 275.65 c -5.09 0.59 -17.65 7.1 -16.7 13.04 c 0.56 3.47 8.23 0.86 10.79 0.73 c 4.93 -0.26 10.91 -0.17 15.88 0 c 2.17 0.07 9.95 1.38 11.26 0.74 c 4.88 -2.36 -3.23 -8.86 -5.61 -10.23 c -4.69 -2.69 -10.14 -4.92 -15.61 -4.28 Z M 157.42 325.58 c -49.47 0.93 -83.15 52.52 -58.06 97.14 c 25.19 44.8 92.97 44.82 118.72 0.48 s -9.88 -98.57 -60.66 -97.62 Z M 357.1 325.58 c -49.47 0.93 -83.15 52.52 -58.06 97.14 c 25.19 44.8 92.97 44.82 118.72 0.48 c 26.48 -45.58 -9.88 -98.57 -60.66 -97.62 Z M 431.48 434.04 c -11.87 1.99 -5.61 20.29 5.4 16.44 c 10.2 -3.57 3.99 -18.02 -5.4 -16.44 Z M 226.03 436.41 c -3.65 1.08 -3.47 12.86 -3.22 15.98 c 1.75 21.82 19.75 40.65 42.48 32.9 c 17.13 -5.85 24.65 -19.65 31.36 -35.39 c 0.07 -1.19 -3.09 -1.48 -4.09 -1.55 c -16.31 -1.17 -32.61 -3.72 -48.65 -7.47 c -4.65 -1.09 -11.63 -3.87 -15.71 -4.46 c -0.77 -0.11 -1.4 -0.25 -2.18 -0.02 Z M 88.76 446.52 c -10.96 1.78 -10.21 21.04 3.61 18.49 c 4.78 -0.88 7.66 -7.1 6.96 -11.53 c -0.74 -4.68 -6.07 -7.69 -10.58 -6.96 Z M 413.23 447.48 c -12.46 2.11 -11.32 21.48 3.2 19.99 c 14.84 -1.52 9.47 -22.13 -3.2 -19.99 Z M 108.43 458.51 c -7.18 1.33 -9.4 13.56 -2.42 17.08 c 8.03 4.05 15.11 -4.09 13.48 -12.04 c -0.94 -4.58 -7.14 -5.76 -11.06 -5.04 Z" stroke-linecap="round"/>
</g>
		<g transform="matrix(1 0 0 1 12.0158 194.8164)" id="Layer_2-2">
<path style="stroke: none; stroke-width: 1; stroke-dasharray: none; stroke-linecap: butt; stroke-dashoffset: 0; stroke-linejoin: miter; stroke-miterlimit: 4; is-custom-font: none; font-file-url: none; fill: rgb(56,107,227); fill-rule: nonzero; opacity: 1;" transform=" translate(-257.5758, -591.2964)" d="M 311.12 548.16 l 0.02 84.16 c -0.14 0.58 -1.63 0.74 -2.17 0.8 c -21 2.22 -43.71 1.12 -64.79 0.46 c -9.91 -0.31 -19.9 -0.34 -29.78 -1.42 c -1.6 -0.18 -8.69 -0.98 -9.37 -1.67 c -0.92 -0.93 -0.36 -5.09 -0.47 -6.73 c -1.07 -16.24 -0.3 -32.7 0.02 -48.95 c 0.18 -8.75 -0.14 -17.47 0.46 -26.18 c 36.42 4.52 69.7 3.82 106.08 -0.48 Z M 269.84 559.2 h -24.48 l -11.52 40.32 l 24.77 -5.77 l 1.92 -0.57 l -6.05 33.22 l 33.12 -47.75 c 0.16 -0.77 0.05 -0.76 -0.63 -0.64 c -11.95 2.15 -23.89 4.56 -35.85 6.63 c 5.98 -7.43 13.44 -15.56 18.15 -23.85 c 0.31 -0.54 0.73 -0.87 0.57 -1.59 Z" stroke-linecap="round"/>
</g>
		<g transform="matrix(1 0 0 1 7.225 -282.255)" id="Layer_2-2">
<path style="stroke: none; stroke-width: 1; stroke-dasharray: none; stroke-linecap: butt; stroke-dashoffset: 0; stroke-linejoin: miter; stroke-miterlimit: 4; is-custom-font: none; font-file-url: none; fill: rgb(252,223,108); fill-rule: nonzero; opacity: 1;" transform=" translate(-252.785, -114.225)" d="M 268.88 65.28 c -0.58 11.08 -0.69 22.26 -0.5 33.38 c 0.02 1.14 0.5 2.19 0.52 3.32 c 0.31 19.06 0.43 38.11 1.9 57.15 l -0.48 0.96 l -7.88 3.08 c -5.05 -8.14 -11.83 -19.8 -21.08 -23.57 c -1.14 -0.46 -6.5 -1.77 -6.59 -2.15 l 0.02 -72.16 h 34.09 Z" stroke-linecap="round"/>
</g>
		<g transform="matrix(1 0 0 1 -31.3815 -236.0345)" id="Layer_2-2">
<path style="stroke: none; stroke-width: 1; stroke-dasharray: none; stroke-linecap: butt; stroke-dashoffset: 0; stroke-linejoin: miter; stroke-miterlimit: 4; is-custom-font: none; font-file-url: none; fill: rgb(252,223,108); fill-rule: nonzero; opacity: 1;" transform=" translate(-214.1785, -160.4455)" d="M 228.08 143.04 c 0.37 0.4 -0.84 8.85 -1.04 10.24 c -0.76 5.3 -2.19 16.71 -5.2 20.72 c -5.73 7.62 -21.88 3.35 -21.63 -7.7 c 0.32 -14.05 15.84 -21.26 27.86 -23.26 Z" stroke-linecap="round"/>
</g>
		<g transform="matrix(1 0 0 1 9.7235 -207.6074)" id="Layer_2-2">
<path style="stroke: none; stroke-width: 1; stroke-dasharray: none; stroke-linecap: butt; stroke-dashoffset: 0; stroke-linejoin: miter; stroke-miterlimit: 4; is-custom-font: none; font-file-url: none; fill: rgb(252,223,108); fill-rule: nonzero; opacity: 1;" transform=" translate(-255.2836, -188.8726)" d="M 259.07 171.38 c 0.97 -0.22 1.41 1.48 1.67 2.12 c 2.87 7.26 3.82 20.24 1.17 27.61 c -2.83 7.85 -13.78 6.51 -14.63 -1.19 s 1.27 -16.82 6.25 -23.03 c 0.56 -0.7 5.16 -5.42 5.54 -5.51 Z" stroke-linecap="round"/>
</g>
		<g transform="matrix(1 0 0 1 38.9067 -224.2674)" id="Layer_2-2">
<path style="stroke: none; stroke-width: 1; stroke-dasharray: none; stroke-linecap: butt; stroke-dashoffset: 0; stroke-linejoin: miter; stroke-miterlimit: 4; is-custom-font: none; font-file-url: none; fill: rgb(252,223,108); fill-rule: nonzero; opacity: 1;" transform=" translate(-284.4667, -172.2126)" d="M 277.52 164.16 c 4.88 -0.51 12.86 1.48 13.8 7.08 c 0.45 2.65 -0.69 9.71 -4.21 9.06 c -7.42 -1.37 -9.55 -9.64 -9.59 -16.14 Z" stroke-linecap="round"/>
</g>
		<g transform="matrix(1 0 0 1 -186.8035 -126.4897)" id="Layer_2-2">
<path style="stroke: none; stroke-width: 1; stroke-dasharray: none; stroke-linecap: butt; stroke-dashoffset: 0; stroke-linejoin: miter; stroke-miterlimit: 4; is-custom-font: none; font-file-url: none; fill: rgb(248,241,215); fill-rule: nonzero; opacity: 1;" transform=" translate(-58.7566, -269.9903)" d="M 78.67 164.33 c 1.2 0.07 1.71 1.69 1.37 3.23 c -4.15 18.7 -10.72 37.33 -14.93 56.12 c -8.1 36.15 -13 76.98 -14.65 113.99 c -0.44 9.75 0.44 20.64 -0.95 30.25 c -0.75 5.23 -3.85 11.6 -8.55 4.73 c -4.24 -6.2 -3.63 -31.39 -3.46 -39.78 c 0.97 -49.47 8.17 -105.93 24.37 -152.75 c 0.52 -1.5 1.16 -4.25 2.05 -5.39 c 1.66 -0.87 2.45 -3.02 4.24 -4.12 c 0.48 -0.29 1.74 -0.69 2.49 -1.12 c 2.88 -0.52 5.85 -3.37 8.02 -5.15 Z" stroke-linecap="round"/>
</g>
		<g transform="matrix(1 0 0 1 -52.9592 353.8476)" id="Layer_2-2">
<path style="stroke: none; stroke-width: 1; stroke-dasharray: none; stroke-linecap: butt; stroke-dashoffset: 0; stroke-linejoin: miter; stroke-miterlimit: 4; is-custom-font: none; font-file-url: none; fill: rgb(96,156,254); fill-rule: nonzero; opacity: 1;" transform=" translate(-192.6007, -750.3276)" d="M 225.04 737.93 c 0.48 0.46 0.67 1.25 1.35 1.77 c 1.54 1.19 15.86 8.33 16.77 8.11 c 2.19 -3.02 5.04 -6.23 6.92 -9.41 c 0.62 -1.05 3.35 -5.52 2.49 -6.4 c -3.59 -0.32 -6.98 1.18 -10.45 1.79 c -4.56 0.8 -12.12 3.14 -12.11 -3.71 c 1.29 0.08 2.82 -0.41 3.82 -1.22 c 2.7 -2.18 0.54 -4.89 6.02 -5.5 c 4.39 -0.49 19.5 0.05 22.98 2.46 c 0.97 0.67 1.14 1.46 1.27 2.57 c 0.94 8.1 0.58 18.26 -0.02 26.41 c -0.39 5.39 -0.44 5.82 -4.95 8.49 c -11.5 6.8 -31.7 13.76 -44.76 17.16 c -21.57 5.61 -60.51 7.59 -81.69 0.64 c -8.66 -2.84 -11.86 -6.26 -12.13 -15.7 c -0.87 -30.05 21.39 -51.61 51.16 -50.2 c 11.02 0.52 34.83 7.13 44.24 12.88 c 2.49 1.52 6.39 7.31 9.09 9.87 Z M 189.2 765.12 c -0.18 -9.99 -0.48 -20.31 -2.82 -30.06 c -2.39 -9.97 -7.51 -21.16 -19.74 -19.37 c 8.85 6.12 13.05 14.03 15.13 24.46 c 0.71 3.55 3.31 23.03 1.94 25 c -5.79 0.84 -11.89 1.11 -17.81 0.95 c -4.8 -0.12 -10.53 -0.53 -15.33 -0.99 c -8.99 -0.85 -18.04 -2.13 -26.16 -6.24 c -0.64 2.78 -1.05 8.8 0.53 11.23 c 1.11 1.71 6.33 3.86 8.34 4.62 c 27.91 10.62 95.87 2.91 121.17 -13.73 c 5.67 -3.73 6.26 -5.59 5.8 -12.68 c -6.86 1.74 -13.44 4.75 -20.27 6.85 c -16.33 5.02 -33.75 8.59 -50.77 9.95 Z M 227.12 752.63 l -22.55 -22.07 l 9.12 25.44 l 13.43 -3.37 Z M 198.32 733.44 c -0.65 -0.7 -0.88 0.04 -0.96 0.71 c -0.98 8.4 -1.56 16.86 -2.88 25.21 l 13.92 -1.92 l -10.08 -23.99 Z" stroke-linecap="round"/>
</g>
		<g transform="matrix(1 0 0 1 89.3593 359.6005)" id="Layer_2-2">
<path style="stroke: none; stroke-width: 1; stroke-dasharray: none; stroke-linecap: butt; stroke-dashoffset: 0; stroke-linejoin: miter; stroke-miterlimit: 4; is-custom-font: none; font-file-url: none; fill: rgb(96,156,254); fill-rule: nonzero; opacity: 1;" transform=" translate(-334.9193, -756.0805)" d="M 361.04 723.84 c -8.41 0.98 -16.68 8.27 -19.77 15.99 c -2.39 5.98 -2.41 12.51 -3.27 18.81 l 0.95 13.68 c -19.83 -2.59 -39.73 -7.35 -57.44 -16.72 c -1.28 -0.68 -4.54 -3.6 -5.92 -2.75 c -1.65 1.02 -1.06 10.34 -0.03 12.06 c 1.85 3.08 23.41 10.6 27.88 11.96 c 23.53 7.17 60.5 12.87 84.48 7.21 c 1.81 -0.43 5.89 -1.25 6.59 -3.01 c 0.64 -1.59 1.39 -8.77 1.08 -10.44 c -0.1 -0.55 -0.17 -0.97 -0.79 -1.13 c -14.06 1.27 -28.06 2.66 -42.19 2.79 c -2.67 0.02 -5.57 0.89 -8.43 -0.26 c -2.05 -14.97 -0.4 -34.3 14.13 -42.53 l 8.96 -3.28 c 20.78 10.15 33.69 29.9 31.62 53.46 c -0.64 7.26 -3.82 7.14 -10.4 8.32 c -21.42 3.85 -56.05 1.38 -77.47 -3.37 c -7.67 -1.7 -31.82 -8.65 -36.7 -13.94 c -2.21 -2.39 -2.28 -8.28 -2.56 -11.6 c -0.47 -5.54 -0.91 -12.21 -0.99 -17.73 c -0.04 -3.02 -0.37 -10.57 1.96 -12.48 c 3.27 -2.69 19.45 -4.7 23.76 -4.12 s 2.58 10.02 4.53 11.32 c 0.81 0.54 2.31 -0.41 1.93 1.18 l -3.5 1.33 c -6.17 -1.06 -12.34 -3.07 -18.58 -3.24 c -1.13 1.09 7.28 13.21 8.65 14.62 c 0.44 0.46 0.8 1.21 1.58 1.14 c 4.91 -2.84 12.5 -4.94 16.76 -8.55 c 3.03 -2.56 6.69 -9.18 9.23 -11.06 c 1.69 -1.25 9.28 -4.27 11.66 -5.14 c 10.26 -3.8 21.61 -5.62 32.28 -2.52 Z M 312.56 762.24 l 9.12 -24.96 l -21.59 20.88 l 12.48 4.08 Z M 331.28 767.04 l -3.83 -27.83 l -9.13 24.95 l 12.96 2.88 Z" stroke-linecap="round"/>
</g>
		<g transform="matrix(1 0 0 1 89.5608 358.6401)" id="Layer_2-2">
<path style="stroke: none; stroke-width: 1; stroke-dasharray: none; stroke-linecap: butt; stroke-dashoffset: 0; stroke-linejoin: miter; stroke-miterlimit: 4; is-custom-font: none; font-file-url: none; fill: rgb(252,253,255); fill-rule: nonzero; opacity: 1;" transform=" translate(-335.1207, -755.1201)" d="M 361.04 723.84 c 2.37 0.69 4.03 1.32 6.24 2.4 l -8.96 3.28 c -14.53 8.23 -16.18 27.56 -14.13 42.53 c 2.87 1.15 5.77 0.28 8.43 0.26 c 14.13 -0.13 28.13 -1.53 42.19 -2.79 c 0.62 0.16 0.69 0.59 0.79 1.13 c 0.31 1.67 -0.44 8.85 -1.08 10.44 c -0.71 1.75 -4.78 2.58 -6.59 3.01 c -23.99 5.66 -60.95 -0.04 -84.48 -7.21 c -4.47 -1.36 -26.03 -8.89 -27.88 -11.96 c -1.03 -1.72 -1.62 -11.04 0.03 -12.06 c 1.38 -0.85 4.65 2.08 5.92 2.75 c 17.72 9.37 37.61 14.13 57.44 16.72 l -0.95 -13.68 c 0.85 -6.3 0.88 -12.83 3.27 -18.81 c 3.09 -7.72 11.36 -15.01 19.77 -15.99 Z" stroke-linecap="round"/>
</g>
		<g transform="matrix(1 0 0 1 88.7143 226.5006)" id="Layer_2-2">
<path style="stroke: none; stroke-width: 1; stroke-dasharray: none; stroke-linecap: butt; stroke-dashoffset: 0; stroke-linejoin: miter; stroke-miterlimit: 4; is-custom-font: none; font-file-url: none; fill: rgb(176,196,242); fill-rule: nonzero; opacity: 1;" transform=" translate(-334.2743, -622.9806)" d="M 334.16 596.64 c 4.45 4.1 3.83 5.24 6.24 10.08 l -2.4 -0.48 c -0.49 0.51 4.83 8.16 5.51 9.6 c 0.6 1.26 1.41 3.11 1.82 4.42 c 0.55 1.74 1.39 8.05 2.26 8.78 c 0.35 0.3 0.53 0.29 0.96 0.23 c -0.06 -2.11 0.16 -4.25 -0.12 -6.35 c -0.25 -1.86 -3.18 -10.03 -4.2 -11.4 c 1.35 -6.5 9.46 -3.78 12.48 0.24 c 4.07 5.41 4.89 13.06 3.36 19.44 l -0.48 0.48 c -0.04 0.15 0.04 0.33 0 0.48 c -4.78 6.32 -10.36 14.37 -19.53 10.65 c -4.88 -1.98 -9.23 -11.08 -9.99 -11.12 c -0.94 -0.05 -0.46 1.34 -0.38 1.8 c 0.92 4.87 5.95 11.91 11.18 12.59 c 0.7 0.77 -2.61 2.54 -3.18 2.82 c -5.79 2.82 -12.27 2.66 -16.75 -2.33 c -1.16 -1.29 -3.19 -6.23 -4.3 -6.26 c -1.17 4.77 2.61 8.38 5.52 11.52 c -8.1 1.46 -12.33 -6.43 -14.4 -12.96 c 2.68 -0.2 5.48 -0.23 7.92 -1.44 c 1.89 -4.11 0.67 -8.85 1.7 -13.18 c 0.04 -7.92 -0.13 -15.86 -0.02 -23.78 c 1.96 -1.07 3.62 -1.11 5.79 -0.74 c 2.99 0.51 4.88 2.86 7.66 3.86 c -2.18 -5.33 -8.23 -6.88 -13.44 -5.52 c 0.03 -0.96 -0.05 -1.93 0 -2.88 l 0.48 -0.48 c 3.16 -1.01 5.87 -0.96 9.01 -0.13 c 2.36 0.62 5.01 2.66 7.31 2.05 Z" stroke-linecap="round"/>
</g>
		<g transform="matrix(1 0 0 1 -56.8272 235.9386)" id="Layer_2-2">
<path style="stroke: none; stroke-width: 1; stroke-dasharray: none; stroke-linecap: butt; stroke-dashoffset: 0; stroke-linejoin: miter; stroke-miterlimit: 4; is-custom-font: none; font-file-url: none; fill: rgb(176,196,242); fill-rule: nonzero; opacity: 1;" transform=" translate(-188.7327, -632.4186)" d="M 198.32 606.24 c 0.25 5.5 -0.28 11.08 -0.02 16.58 c 0.1 2.18 0.7 10.49 1.54 11.9 c 1.4 2.38 13.28 2.76 16.24 3.2 c -1.07 3.73 -1.94 8.11 -3.47 11.65 c -2.4 5.53 -5.64 6.87 -10.93 8.99 l -0.48 -0.48 c 2.47 -1.86 3.66 -4.18 4.32 -7.2 c -0.61 -0.63 -4.82 4.8 -5.79 5.49 c -6.03 4.23 -11.47 1.43 -17.73 -0.21 c 3.15 -3.04 7.08 -5.76 7.44 -10.55 c -2.81 2.34 -5.41 7.34 -9.24 8.04 c -1.93 0.35 -6.94 0.33 -8.89 0 c -10.75 -1.82 -11.79 -18.29 -7.74 -26.23 c 0.87 -1.71 3.31 -3.46 2.59 -5.33 c 3.42 -2.23 8.92 -0.89 8.64 3.84 c -0.21 3.52 -9.35 11.06 -6 16.32 c 2.45 -3.15 3.67 -7.08 5.8 -10.52 c 1.49 -2.41 3.39 -4.37 4.92 -6.6 c 2.08 -3.03 3.52 -6.5 6.32 -9.04 c -2.23 -0.14 -3.57 2.67 -5.27 3.6 c 0.91 -8.58 9.8 -13.45 17.76 -13.44 Z" stroke-linecap="round"/>
</g>
		<g transform="matrix(1 0 0 1 87.155 246.5566)" id="Layer_2-2">
<path style="stroke: none; stroke-width: 1; stroke-dasharray: none; stroke-linecap: butt; stroke-dashoffset: 0; stroke-linejoin: miter; stroke-miterlimit: 4; is-custom-font: none; font-file-url: none; fill: rgb(57,76,119); fill-rule: nonzero; opacity: 1;" transform=" translate(-332.715, -643.0366)" d="M 359.6 632.16 c -1.94 6.3 -4.31 11.16 -10.7 14.02 c -4.13 1.85 -4.01 2.11 -7.59 4.41 c -4.34 2.8 -8.51 3.51 -13.64 3.17 c -1.18 -0.08 -2.45 -0.93 -3.29 -0.84 c -0.79 0.08 -1.66 1.02 -2.58 1.21 c -8.96 1.89 -14.98 -7.56 -15.97 -15.25 c 0.63 -0.04 1.29 0.05 1.92 0 c 2.07 6.53 6.3 14.42 14.4 12.96 c -2.9 -3.14 -6.68 -6.75 -5.52 -11.52 c 1.11 0.02 3.14 4.96 4.3 6.26 c 4.48 4.99 10.96 5.15 16.75 2.33 c 0.57 -0.28 3.88 -2.05 3.18 -2.82 c -5.23 -0.68 -10.26 -7.72 -11.18 -12.59 c -0.09 -0.46 -0.56 -1.85 0.38 -1.8 c 0.76 0.04 5.11 9.14 9.99 11.12 c 9.17 3.72 14.75 -4.33 19.53 -10.65 Z" stroke-linecap="round"/>
</g>
		<g transform="matrix(1 0 0 1 -62.3598 226.5631)" id="Layer_2-2">
<path style="stroke: none; stroke-width: 1; stroke-dasharray: none; stroke-linecap: butt; stroke-dashoffset: 0; stroke-linejoin: miter; stroke-miterlimit: 4; is-custom-font: none; font-file-url: none; fill: rgb(57,76,119); fill-rule: nonzero; opacity: 1;" transform=" translate(-183.2002, -623.043)" d="M 174.8 625.92 c 1.14 -0.23 3.8 -3.51 4.08 -4.34 s -0.35 -2.04 -0.28 -3.09 c 0.59 -9.42 11.15 -14.97 19.73 -14.64 c 0.03 0.8 -0.04 1.6 0 2.4 c -7.96 -0.01 -16.84 4.86 -17.76 13.44 c 1.71 -0.93 3.05 -3.74 5.27 -3.6 c -2.8 2.54 -4.24 6.01 -6.32 9.04 c -1.53 2.23 -3.43 4.18 -4.92 6.6 c -2.13 3.44 -3.35 7.37 -5.8 10.52 c -3.35 -5.26 5.79 -12.8 6 -16.32 Z" stroke-linecap="round"/>
</g>
		<g transform="matrix(1 0 0 1 97.722 221.2919)" id="Layer_2-2">
<path style="stroke: none; stroke-width: 1; stroke-dasharray: none; stroke-linecap: butt; stroke-dashoffset: 0; stroke-linejoin: miter; stroke-miterlimit: 4; is-custom-font: none; font-file-url: none; fill: rgb(57,76,119); fill-rule: nonzero; opacity: 1;" transform=" translate(-343.2821, -617.7719)" d="M 340.4 606.72 c 1.34 2.69 2.74 3.32 3.84 4.8 c 1.02 1.37 3.94 9.55 4.2 11.4 c 0.28 2.11 0.06 4.24 0.12 6.35 c -0.43 0.06 -0.62 0.07 -0.96 -0.23 c -0.86 -0.74 -1.71 -7.04 -2.26 -8.78 c -0.41 -1.31 -1.22 -3.16 -1.82 -4.42 c -0.69 -1.45 -6 -9.09 -5.51 -9.6 l 2.4 0.48 Z" stroke-linecap="round"/>
</g>
		<g transform="matrix(1 0 0 1 80.2 197.7424)" id="Layer_2-2">
<path style="stroke: none; stroke-width: 1; stroke-dasharray: none; stroke-linecap: butt; stroke-dashoffset: 0; stroke-linejoin: miter; stroke-miterlimit: 4; is-custom-font: none; font-file-url: none; fill: rgb(55,72,117); fill-rule: nonzero; opacity: 1;" transform=" translate(-325.76, -594.2225)" d="M 334.16 596.64 c -2.3 0.6 -4.95 -1.44 -7.31 -2.05 c -3.14 -0.82 -5.85 -0.87 -9.01 0.13 h -0.48 c 0.22 -2.45 0.41 -2.6 3.12 -2.88 c 6.12 -0.64 9.36 0.83 13.68 4.8 Z" stroke-linecap="round"/>
</g>
		<g transform="matrix(1 0 0 1 78.5115 204.127)" id="Layer_2-2">
<path style="stroke: none; stroke-width: 1; stroke-dasharray: none; stroke-linecap: butt; stroke-dashoffset: 0; stroke-linejoin: miter; stroke-miterlimit: 4; is-custom-font: none; font-file-url: none; fill: rgb(57,76,119); fill-rule: nonzero; opacity: 1;" transform=" translate(-324.0715, -600.6069)" d="M 317.36 598.08 c 5.22 -1.36 11.26 0.19 13.44 5.52 c -2.77 -1 -4.67 -3.35 -7.66 -3.86 c -2.17 -0.37 -3.83 -0.33 -5.79 0.74 c 0.01 -0.8 -0.02 -1.6 0 -2.4 Z" stroke-linecap="round"/>
</g>
		<g transform="matrix(1 0 0 1 -15.3 341.045)" id="Layer_2-2">
<polygon style="stroke: none; stroke-width: 1; stroke-dasharray: none; stroke-linecap: butt; stroke-dashoffset: 0; stroke-linejoin: miter; stroke-miterlimit: 4; is-custom-font: none; font-file-url: none; fill: rgb(96,156,254); fill-rule: nonzero; opacity: 1;" points="2.14,-1.675 0.24,1.945 -2.14,1.155 -0.74,-1.945 2.14,-1.675 "/>
</g>
		<g transform="matrix(1 0 0 1 58.105 344.4369)" id="Layer_2-2">
<path style="stroke: none; stroke-width: 1; stroke-dasharray: none; stroke-linecap: butt; stroke-dashoffset: 0; stroke-linejoin: miter; stroke-miterlimit: 4; is-custom-font: none; font-file-url: none; fill: rgb(96,156,254); fill-rule: nonzero; opacity: 1;" transform=" translate(-303.665, -740.917)" d="M 302.97 743.04 l -1.48 -3.55 c 1.77 -1.69 3.61 0 4.35 1.85 l -2.87 1.69 Z" stroke-linecap="round"/>
</g>
		<g transform="matrix(1 0 0 1 72.0378 198.48)" id="Layer_2-2">
<path style="stroke: none; stroke-width: 1; stroke-dasharray: none; stroke-linecap: butt; stroke-dashoffset: 0; stroke-linejoin: miter; stroke-miterlimit: 4; is-custom-font: none; font-file-url: none; fill: rgb(57,76,119); fill-rule: nonzero; opacity: 1;" transform=" translate(-317.5978, -594.96)" d="M 317.36 595.2 c 0 -0.16 -0.01 -0.32 0 -0.48 h 0.48 l -0.48 0.48 Z" stroke-linecap="round"/>
</g>
		<g transform="matrix(1 0 0 1 114.28 234.96)" id="Layer_2-2">
<path style="stroke: none; stroke-width: 1; stroke-dasharray: none; stroke-linecap: butt; stroke-dashoffset: 0; stroke-linejoin: miter; stroke-miterlimit: 4; is-custom-font: none; font-file-url: none; fill: rgb(57,76,119); fill-rule: nonzero; opacity: 1;" transform=" translate(-359.84, -631.44)" d="M 359.6 631.68 l 0.48 -0.48 c -0.07 0.29 -0.47 0.44 -0.48 0.48 Z" stroke-linecap="round"/>
</g>
		<g transform="matrix(1 0 0 1 113.029 -5.5024)" id="Layer_2-2">
<path style="stroke: none; stroke-width: 1; stroke-dasharray: none; stroke-linecap: butt; stroke-dashoffset: 0; stroke-linejoin: miter; stroke-miterlimit: 4; is-custom-font: none; font-file-url: none; fill: rgb(254,254,254); fill-rule: nonzero; opacity: 1;" transform=" translate(-358.589, -390.9776)" d="M 357.1 325.58 c 50.78 -0.95 87.14 52.04 60.66 97.62 c -25.76 44.34 -93.53 44.32 -118.72 -0.48 c -25.09 -44.62 8.59 -96.21 58.06 -97.14 Z M 343.67 344.3 c -36.57 2.91 -56.62 44.43 -35.81 74.89 c 19.92 29.16 64.41 27.15 81.41 -3.85 c 18.31 -33.37 -7.71 -74.06 -45.6 -71.04 Z" stroke-linecap="round"/>
</g>
		<g transform="matrix(1 0 0 1 -86.651 -5.5024)" id="Layer_2-2">
<path style="stroke: none; stroke-width: 1; stroke-dasharray: none; stroke-linecap: butt; stroke-dashoffset: 0; stroke-linejoin: miter; stroke-miterlimit: 4; is-custom-font: none; font-file-url: none; fill: rgb(254,254,254); fill-rule: nonzero; opacity: 1;" transform=" translate(-158.909, -390.9776)" d="M 157.42 325.58 c 50.78 -0.95 87.14 52.04 60.66 97.62 c -25.76 44.34 -93.53 44.32 -118.72 -0.48 c -25.09 -44.62 8.59 -96.21 58.06 -97.14 Z M 161.27 344.3 c -34.82 2.79 -55.15 41.44 -37.55 71.82 c 18.44 31.82 64.91 31.64 83.15 -0.3 s -7.45 -74.58 -45.6 -71.52 Z" stroke-linecap="round"/>
</g>
		<g transform="matrix(1 0 0 1 14.1426 65.1327)" id="Layer_2-2">
<path style="stroke: none; stroke-width: 1; stroke-dasharray: none; stroke-linecap: butt; stroke-dashoffset: 0; stroke-linejoin: miter; stroke-miterlimit: 4; is-custom-font: none; font-file-url: none; fill: rgb(7,6,4); fill-rule: nonzero; opacity: 1;" transform=" translate(-259.7026, -461.6127)" d="M 226.05 436.34 c 0.78 -0.23 1.41 -0.09 2.18 0.02 c 4.08 0.59 11.06 3.37 15.71 4.46 c 16.03 3.75 32.34 6.3 48.65 7.47 c 0.99 0.07 4.16 0.36 4.09 1.55 c -6.71 15.74 -14.23 29.54 -31.36 35.39 c -22.73 7.76 -40.73 -11.08 -42.48 -32.9 c -0.25 -3.12 -0.43 -14.9 3.22 -15.98 Z" stroke-linecap="round"/>
</g>
		<g transform="matrix(1 0 0 1 185.532 -180.6038)" id="Layer_2-2">
<path style="stroke: none; stroke-width: 1; stroke-dasharray: none; stroke-linecap: butt; stroke-dashoffset: 0; stroke-linejoin: miter; stroke-miterlimit: 4; is-custom-font: none; font-file-url: none; fill: rgb(247,240,214); fill-rule: nonzero; opacity: 1;" transform=" translate(-431.092, -215.8763)" d="M 416.1 170.02 c 9.07 -2.08 12.98 8.73 15.73 15.27 c 6.68 15.9 13.15 38.35 16.73 55.27 c 1.26 5.96 4.72 19.71 -3.98 21.32 c -6.67 1.24 -10.12 -7.93 -11.66 -12.88 c -6.55 -21.02 -10.98 -42.52 -18.1 -63.5 c -1.34 -3.95 -3.97 -7.2 -2.52 -11.62 c 0.45 -1.38 2.35 -3.53 3.81 -3.87 Z" stroke-linecap="round"/>
</g>
		<g transform="matrix(1 0 0 1 -89.9407 -113.4649)" id="Layer_2-2">
<path style="stroke: none; stroke-width: 1; stroke-dasharray: none; stroke-linecap: butt; stroke-dashoffset: 0; stroke-linejoin: miter; stroke-miterlimit: 4; is-custom-font: none; font-file-url: none; fill: rgb(7,6,4); fill-rule: nonzero; opacity: 1;" transform=" translate(-155.6193, -283.0151)" d="M 152.62 275.65 c 5.47 -0.64 10.92 1.59 15.61 4.28 c 2.39 1.37 10.5 7.87 5.61 10.23 c -1.31 0.63 -9.09 -0.67 -11.26 -0.74 c -4.97 -0.17 -10.95 -0.26 -15.88 0 c -2.56 0.14 -10.23 2.75 -10.79 -0.73 c -0.95 -5.94 11.6 -12.45 16.7 -13.04 Z" stroke-linecap="round"/>
</g>
		<g transform="matrix(1 0 0 1 110.2424 -135.659)" id="Layer_2-2">
<path style="stroke: none; stroke-width: 1; stroke-dasharray: none; stroke-linecap: butt; stroke-dashoffset: 0; stroke-linejoin: miter; stroke-miterlimit: 4; is-custom-font: none; font-file-url: none; fill: rgb(7,6,4); fill-rule: nonzero; opacity: 1;" transform=" translate(-355.8025, -260.821)" d="M 344.72 257.28 c 4.53 -2.95 12.53 -5.43 17.9 -4.22 c 0.73 0.16 2.88 1.59 3.66 2.1 c 0.96 0.64 5.83 4.62 6.24 5.28 c 0.65 1.05 0.4 2.46 1.01 3.55 c -0.96 0.02 -1.92 -0.02 -2.88 0 c -7.18 0.15 -12.41 0.15 -19.5 1.86 c -3.63 0.87 -15.08 6.83 -12.77 -0.76 c 0.95 -3.1 3.7 -6.09 6.35 -7.81 Z" stroke-linecap="round"/>
</g>
		<g transform="matrix(1 0 0 1 169.4606 60.9573)" id="Layer_2-2">
<path style="stroke: none; stroke-width: 1; stroke-dasharray: none; stroke-linecap: butt; stroke-dashoffset: 0; stroke-linejoin: miter; stroke-miterlimit: 4; is-custom-font: none; font-file-url: none; fill: rgb(255,246,211); fill-rule: nonzero; opacity: 1;" transform=" translate(-415.0206, -457.4373)" d="M 413.23 447.48 c 12.67 -2.15 18.04 18.46 3.2 19.99 c -14.51 1.49 -15.66 -17.88 -3.2 -19.99 Z" stroke-linecap="round"/>
</g>
		<g transform="matrix(1 0 0 1 -155.2326 59.3457)" id="Layer_2-2">
<path style="stroke: none; stroke-width: 1; stroke-dasharray: none; stroke-linecap: butt; stroke-dashoffset: 0; stroke-linejoin: miter; stroke-miterlimit: 4; is-custom-font: none; font-file-url: none; fill: rgb(255,246,211); fill-rule: nonzero; opacity: 1;" transform=" translate(-90.3274, -455.8258)" d="M 88.76 446.52 c 4.5 -0.73 9.84 2.28 10.58 6.96 c 0.7 4.43 -2.18 10.65 -6.96 11.53 c -13.82 2.54 -14.57 -16.72 -3.61 -18.49 Z" stroke-linecap="round"/>
</g>
		<g transform="matrix(1 0 0 1 -134.8124 71.0115)" id="Layer_2-2">
<path style="stroke: none; stroke-width: 1; stroke-dasharray: none; stroke-linecap: butt; stroke-dashoffset: 0; stroke-linejoin: miter; stroke-miterlimit: 4; is-custom-font: none; font-file-url: none; fill: rgb(255,246,211); fill-rule: nonzero; opacity: 1;" transform=" translate(-110.7476, -467.4914)" d="M 108.43 458.51 c 3.91 -0.72 10.12 0.46 11.06 5.04 c 1.63 7.95 -5.45 16.1 -13.48 12.04 c -6.98 -3.52 -4.76 -15.76 2.42 -17.08 Z" stroke-linecap="round"/>
</g>
		<g transform="matrix(1 0 0 1 188.0408 45.9853)" id="Layer_2-2">
<path style="stroke: none; stroke-width: 1; stroke-dasharray: none; stroke-linecap: butt; stroke-dashoffset: 0; stroke-linejoin: miter; stroke-miterlimit: 4; is-custom-font: none; font-file-url: none; fill: rgb(255,246,211); fill-rule: nonzero; opacity: 1;" transform=" translate(-433.6008, -442.4653)" d="M 431.48 434.04 c 9.39 -1.58 15.6 12.87 5.4 16.44 c -11.01 3.85 -17.27 -14.44 -5.4 -16.44 Z" stroke-linecap="round"/>
</g>
		<g transform="matrix(1 0 0 1 113.8656 -138.4943)" id="Layer_2-2">
<path style="stroke: none; stroke-width: 1; stroke-dasharray: none; stroke-linecap: butt; stroke-dashoffset: 0; stroke-linejoin: miter; stroke-miterlimit: 4; is-custom-font: none; font-file-url: none; fill: rgb(1,1,1); fill-rule: nonzero; opacity: 1;" transform=" translate(-359.4256, -257.9857)" d="M 344.72 257.28 c 5.39 -5.03 14.06 -7.54 20.97 -4.41 c 4.25 1.93 9.37 6.48 8.31 11.61 l -3.36 -0.48 c 0.96 -0.02 1.92 0.02 2.88 0 c -0.61 -1.09 -0.36 -2.5 -1.01 -3.55 c -0.41 -0.66 -5.27 -4.64 -6.24 -5.28 c -0.77 -0.52 -2.93 -1.94 -3.66 -2.1 c -5.37 -1.21 -13.37 1.27 -17.9 4.22 Z" stroke-linecap="round"/>
</g>
		<g transform="matrix(1 0 0 1 15.1931 196.32)" id="Layer_2-2">
<path style="stroke: none; stroke-width: 1; stroke-dasharray: none; stroke-linecap: butt; stroke-dashoffset: 0; stroke-linejoin: miter; stroke-miterlimit: 4; is-custom-font: none; font-file-url: none; fill: rgb(252,220,110); fill-rule: nonzero; opacity: 1;" transform=" translate(-260.7531, -592.8)" d="M 269.84 559.2 c 0.16 0.72 -0.27 1.05 -0.57 1.59 c -4.71 8.29 -12.17 16.41 -18.15 23.85 c 11.97 -2.07 23.9 -4.48 35.85 -6.63 c 0.69 -0.12 0.79 -0.13 0.63 0.64 l -33.12 47.75 l 5.8 -33.01 l -1.67 0.36 l -24.77 5.77 l 11.52 -40.32 h 24.48 Z" stroke-linecap="round"/>
</g>
		<g transform="matrix(1 0 0 1 -53.4621 351.0766)" id="Layer_2-2">
<path style="stroke: none; stroke-width: 1; stroke-dasharray: none; stroke-linecap: butt; stroke-dashoffset: 0; stroke-linejoin: miter; stroke-miterlimit: 4; is-custom-font: none; font-file-url: none; fill: rgb(252,253,255); fill-rule: nonzero; opacity: 1;" transform=" translate(-192.0979, -747.5566)" d="M 189.2 765.12 c 17.02 -1.36 34.44 -4.94 50.77 -9.95 c 6.83 -2.1 13.41 -5.11 20.27 -6.85 c 0.46 7.09 -0.13 8.95 -5.8 12.68 c -25.29 16.64 -93.26 24.35 -121.17 13.73 c -2.01 -0.76 -7.23 -2.91 -8.34 -4.62 c -1.58 -2.42 -1.17 -8.45 -0.53 -11.23 c 8.11 4.1 17.17 5.38 26.16 6.24 c 4.81 0.46 10.53 0.86 15.33 0.99 c 5.92 0.15 12.02 -0.12 17.81 -0.95 c 1.37 -1.97 -1.23 -21.45 -1.94 -25 c -2.08 -10.44 -6.28 -18.34 -15.13 -24.46 c 12.23 -1.79 17.35 9.4 19.74 19.37 c 2.34 9.76 2.63 20.08 2.82 30.06 Z" stroke-linecap="round"/>
</g>
		<g transform="matrix(1 0 0 1 -29.715 346.8)" id="Layer_2-2">
<polygon style="stroke: none; stroke-width: 1; stroke-dasharray: none; stroke-linecap: butt; stroke-dashoffset: 0; stroke-linejoin: miter; stroke-miterlimit: 4; is-custom-font: none; font-file-url: none; fill: rgb(251,252,255); fill-rule: nonzero; opacity: 1;" points="11.275,9.35 -2.155,12.72 -11.275,-12.72 11.275,9.35 "/>
</g>
		<g transform="matrix(1 0 0 1 -44.12 349.7666)" id="Layer_2-2">
<path style="stroke: none; stroke-width: 1; stroke-dasharray: none; stroke-linecap: butt; stroke-dashoffset: 0; stroke-linejoin: miter; stroke-miterlimit: 4; is-custom-font: none; font-file-url: none; fill: rgb(251,252,255); fill-rule: nonzero; opacity: 1;" transform=" translate(-201.44, -746.2465)" d="M 198.32 733.44 l 10.08 23.99 l -13.92 1.92 c 1.32 -8.35 1.89 -16.81 2.88 -25.21 c 0.08 -0.67 0.3 -1.42 0.96 -0.71 Z" stroke-linecap="round"/>
</g>
		<g transform="matrix(1 0 0 1 79.24 356.64)" id="Layer_2-2">
<polygon style="stroke: none; stroke-width: 1; stroke-dasharray: none; stroke-linecap: butt; stroke-dashoffset: 0; stroke-linejoin: miter; stroke-miterlimit: 4; is-custom-font: none; font-file-url: none; fill: rgb(251,252,255); fill-rule: nonzero; opacity: 1;" points="6.48,13.92 -6.48,11.03 2.65,-13.92 6.48,13.92 "/>
</g>
		<g transform="matrix(1 0 0 1 65.32 353.28)" id="Layer_2-2">
<polygon style="stroke: none; stroke-width: 1; stroke-dasharray: none; stroke-linecap: butt; stroke-dashoffset: 0; stroke-linejoin: miter; stroke-miterlimit: 4; is-custom-font: none; font-file-url: none; fill: rgb(251,252,255); fill-rule: nonzero; opacity: 1;" points="1.68,12.48 -10.8,8.4 10.8,-12.48 1.68,12.48 "/>
</g>
		<g transform="matrix(1 0 0 1 -45.08 262.336)" id="Layer_2-2">
<path style="stroke: none; stroke-width: 1; stroke-dasharray: none; stroke-linecap: butt; stroke-dashoffset: 0; stroke-linejoin: miter; stroke-miterlimit: 4; is-custom-font: none; font-file-url: none; fill: rgb(115,150,230); fill-rule: nonzero; opacity: 1;" transform=" translate(-200.48, -658.816)" d="M 201.68 658.56 c -0.73 0.29 -1.4 1.17 -2.4 0.96 c 0.19 -0.94 1.36 -1.01 1.92 -1.44 l 0.48 0.48 Z" stroke-linecap="round"/>
</g>
		<g transform="matrix(1 0 0 1 -57.5207 245.2856)" id="Layer_2-2">
<path style="stroke: none; stroke-width: 1; stroke-dasharray: none; stroke-linecap: butt; stroke-dashoffset: 0; stroke-linejoin: miter; stroke-miterlimit: 4; is-custom-font: none; font-file-url: none; fill: rgb(55,72,117); fill-rule: nonzero; opacity: 1;" transform=" translate(-188.0393, -641.7656)" d="M 166.16 622.08 c 0.72 1.88 -1.71 3.62 -2.59 5.33 c -4.05 7.94 -3.01 24.42 7.74 26.23 c 1.95 0.33 6.97 0.35 8.89 0 c 3.82 -0.7 6.42 -5.7 9.24 -8.04 c -0.36 4.78 -4.3 7.51 -7.44 10.55 c 6.26 1.64 11.7 4.45 17.73 0.21 c 0.97 -0.68 5.18 -6.12 5.79 -5.49 c -0.65 3.02 -1.85 5.34 -4.32 7.2 c -0.56 0.43 -1.73 0.5 -1.92 1.44 c 1 0.21 1.67 -0.66 2.4 -0.96 c 5.29 -2.12 8.52 -3.46 10.93 -8.99 c 1.54 -3.53 2.41 -7.92 3.47 -11.65 c 2.32 0.34 1.19 3.82 0.83 5.87 c -0.78 4.4 -2.9 9.87 -6.36 12.84 c -1.94 1.67 -8.6 4.78 -11.05 4.84 c -1.58 0.04 -2.29 -0.88 -3.38 -0.99 c -3.86 -0.38 -5.83 0.59 -10.53 -0.95 c -1.91 -0.63 -4.41 -2.49 -5.85 -2.79 c -2.42 -0.5 -5.52 0.14 -8.05 -0.11 c -12.42 -1.25 -15.54 -16.89 -11.37 -26.72 c 0.9 -2.13 3.95 -6.6 5.85 -7.83 Z" stroke-linecap="round"/>
</g>
		<g transform="matrix(1 0 0 1 101.8015 -4.4701)" id="Layer_2-2">
<path style="stroke: none; stroke-width: 1; stroke-dasharray: none; stroke-linecap: butt; stroke-dashoffset: 0; stroke-linejoin: miter; stroke-miterlimit: 4; is-custom-font: none; font-file-url: none; fill: rgb(1,1,1); fill-rule: nonzero; opacity: 1;" transform=" translate(-347.3615, -392.0099)" d="M 343.67 344.3 c 37.89 -3.02 63.91 37.67 45.6 71.04 c -17.01 31 -61.49 33.01 -81.41 3.85 c -20.81 -30.46 -0.75 -71.97 35.81 -74.89 Z" stroke-linecap="round"/>
</g>
		<g transform="matrix(1 0 0 1 -80.3159 -4.1885)" id="Layer_2-2">
<path style="stroke: none; stroke-width: 1; stroke-dasharray: none; stroke-linecap: butt; stroke-dashoffset: 0; stroke-linejoin: miter; stroke-miterlimit: 4; is-custom-font: none; font-file-url: none; fill: rgb(1,1,1); fill-rule: nonzero; opacity: 1;" transform=" translate(-165.244, -392.2914)" d="M 161.27 344.3 c 38.16 -3.06 64.71 38.08 45.6 71.52 s -64.71 32.12 -83.15 0.3 c -17.6 -30.38 2.72 -69.03 37.55 -71.82 Z" stroke-linecap="round"/>
</g>
		<g transform="matrix(1 0 0 1 13.9621 58.029)" id="Layer_2-2">
<path style="stroke: none; stroke-width: 1; stroke-dasharray: none; stroke-linecap: butt; stroke-dashoffset: 0; stroke-linejoin: miter; stroke-miterlimit: 4; is-custom-font: none; font-file-url: none; fill: rgb(250,251,251); fill-rule: nonzero; opacity: 1;" transform=" translate(-259.5221, -454.509)" d="M 264.56 463.68 c -13.92 3.7 -17.64 -4.84 -21.72 -15.84 c -0.2 -0.55 -0.32 -1.14 -0.35 -1.72 c -0.01 -0.23 -0.03 -0.46 0 -0.68 c 0.25 -0.88 1.08 -1.04 1.92 -0.96 c 10.65 2.27 21.29 4.7 32.16 5.76 c -1.31 5.54 -5.41 9.61 -10.08 12.48" stroke-linecap="round"/>
</g>
		<g transform="matrix(1 0 0 1 2.6878 79.7502)" id="Layer_2-2">
<path style="stroke: none; stroke-width: 1; stroke-dasharray: none; stroke-linecap: butt; stroke-dashoffset: 0; stroke-linejoin: miter; stroke-miterlimit: 4; is-custom-font: none; font-file-url: none; fill: rgb(115,150,230); fill-rule: nonzero; opacity: 1;" transform=" translate(-248.2478, -476.2303)" d="M 234.8 470.88 c 10.51 -3.2 24.26 -1.8 27.76 10.41 c 0.3 1.05 -3.01 1.49 -3.76 1.59 c -8.34 1.16 -19.85 -3.65 -24.47 -10.81 c -0.72 -1.11 -0.46 -0.37 0.47 -1.19 Z" stroke-linecap="round"/>
</g>
		<g transform="matrix(1 0 0 1 -133.6735 -298.7637)" id="Layer_2-2">
<path style="stroke: none; stroke-width: 1; stroke-dasharray: none; stroke-linecap: butt; stroke-dashoffset: 0; stroke-linejoin: miter; stroke-miterlimit: 4; is-custom-font: none; font-file-url: none; fill: rgb(96,157,255); fill-rule: nonzero; opacity: 1;" transform=" translate(-111.8865, -97.7163)" d="M 68.82 172.17 L 63.39 174.97 c -8.43 4.42 -16.94 8.96 -25.65 12.82 c -0.72 0.32 -1.91 1.1 -2.93 1.39 c -0.64 0.18 -1.32 -0.07 -1.71 -0.6 c -9.95 -13.71 -20.74 -28.94 -25.36 -45.43 c -5.53 -19.72 -0.07 -41.04 10.11 -58.31 c 0.54 -0.91 0.04 -2.08 -0.99 -2.35 c -8.13 -2.14 -8.05 -9.29 -3.53 -16.3 c 4.11 -6.37 12.41 -8.48 16.24 -1.81 c 0.45 0.78 1.48 0.99 2.24 0.5 c 11.82 -7.47 27.15 -12.17 40.86 -14.23 c 21.04 -3.16 29.7 -2.01 45.71 11.61 c 2.06 1.75 9.95 9.72 11.05 10.57 c 0.1 0.08 7.15 -1.74 7.39 -1.84 c 0.58 -0.26 0.7 -0.64 0.94 -1.23 c 10.56 -26.72 29.7 -66.78 63.84 -63.36 c 22.07 2.21 17.65 26.51 12.18 41.34 c -1.09 2.97 -3.35 8.59 -4.81 11.14 c -0.77 1.35 -0.72 1.88 -2.1 2.2 c -8.77 1.99 -22.31 5.3 -31.47 7.8 c -7.77 2.12 -15.85 4.15 -23.27 7.4 c -2.08 0.91 -3.64 2.69 -4.42 4.82 c -0.01 0.04 -0.03 0.08 -0.05 0.12 c -6.39 15.06 -18.2 32.01 -27.93 45.27 c -13.38 18.23 -21.86 27.58 -41.19 39.69" stroke-linecap="round"/>
</g>
		<g transform="matrix(1 0 0 1 -159.2 -269.28)" id="Layer_2-2">
<path style="stroke: none; stroke-width: 1; stroke-dasharray: none; stroke-linecap: butt; stroke-dashoffset: 0; stroke-linejoin: miter; stroke-miterlimit: 4; is-custom-font: none; font-file-url: none; fill: rgb(181,209,255); fill-rule: nonzero; opacity: 1;" transform=" translate(-86.36, -127.2)" d="M 127.28 77.28 l 9.12 -3.36 c -4.27 17.82 -13.24 34.91 -24.08 49.6 c -19.32 26.18 -46.22 44.38 -76 56.96 c 0.11 -3.04 1.82 -6.55 3.04 -9.44 c 1.89 -4.5 4.08 -8.94 6.61 -13.11 l -0.28 -1.44 c 1.18 0.07 1.22 -0.73 1.69 -1.43 c 21.24 -31.72 46.05 -59.25 79.91 -77.77 Z" stroke-linecap="round"/>
</g>
		<g transform="matrix(1 0 0 1 -175.2378 -292.3145)" id="Layer_2-2">
<path style="stroke: none; stroke-width: 1; stroke-dasharray: none; stroke-linecap: butt; stroke-dashoffset: 0; stroke-linejoin: miter; stroke-miterlimit: 4; is-custom-font: none; font-file-url: none; fill: rgb(216,228,255); fill-rule: nonzero; opacity: 1;" transform=" translate(-70.3223, -104.1655)" d="M 127.28 77.28 c -33.86 18.52 -58.67 46.05 -79.91 77.77 c -0.47 0.7 -0.51 1.5 -1.69 1.43 c -8.69 -17.65 -22.79 -34.04 -26.93 -53.54 c -0.31 -1.45 -0.34 -2.94 -0.06 -4.4 l 3.47 -18.38 c -8.43 2.1 -10.54 -4.08 -7.44 -11.04 c 2.93 -6.58 13.18 -7.02 12.48 1.92 c 13.51 -9.17 29.03 -15.16 45.2 -17.68 c 7.97 -1.24 20.02 -2.7 27.63 0.06 c 4.13 1.49 13.11 9.75 16.7 13.06 s 7.12 7.16 10.55 10.81 Z M 58.16 85.92 l 5.76 -24.95 l -16.77 14.11 l 5.26 25.25 l 7.19 -5.76 l 6 27.36 l 18.48 -35.51 l -15.6 12.48 l 3.11 -23.52 l -13.43 10.56 Z" stroke-linecap="round"/>
</g>
		<g transform="matrix(1 0 0 1 -179.945 -305.04)" id="Layer_2-2">
<polygon style="stroke: none; stroke-width: 1; stroke-dasharray: none; stroke-linecap: butt; stroke-dashoffset: 0; stroke-linejoin: miter; stroke-miterlimit: 4; is-custom-font: none; font-file-url: none; fill: rgb(57,76,119); fill-rule: nonzero; opacity: 1;" points="-7.455,-5.52 5.985,-16.08 2.875,7.44 18.465,-5.04 -0.015,30.48 -6.015,3.12 -13.205,8.88 -18.465,-16.37 -1.695,-30.48 -7.455,-5.52 "/>
</g>
</g>
</g>
</svg>