<?xml version="1.0" encoding="UTF-8"?>
<svg id="Layer_2" data-name="Layer 2" xmlns="http://www.w3.org/2000/svg" viewBox="0 0 491.12 792.96">
  <defs>
    <style>
      .cls-1 {
        fill: #fff6d3;
      }

      .cls-2 {
        fill: #b5d1ff;
      }

      .cls-3 {
        fill: #010101;
      }

      .cls-4 {
        fill: #d8e4ff;
      }

      .cls-5 {
        fill: #386be3;
      }

      .cls-6 {
        fill: #f8f1d7;
      }

      .cls-7 {
        fill: #fcfdff;
      }

      .cls-8 {
        fill: #030105;
      }

      .cls-9 {
        fill: #fffdfd;
      }

      .cls-10 {
        fill: #f7f0d6;
      }

      .cls-11 {
        fill: #374875;
      }

      .cls-12 {
        fill: #394c77;
      }

      .cls-13 {
        fill: #e78900;
      }

      .cls-14 {
        fill: #609dff;
      }

      .cls-15 {
        fill: #7396e6;
      }

      .cls-16 {
        fill: #fcdc6e;
      }

      .cls-17 {
        fill: #b0c4f2;
      }

      .cls-18 {
        fill: #fcdf6b;
      }

      .cls-19 {
        fill: #fefefe;
      }

      .cls-20 {
        fill: #fafbfb;
      }

      .cls-21 {
        fill: #070604;
      }

      .cls-22 {
        fill: #609cfe;
      }

      .cls-23 {
        fill: #fbfcff;
      }

      .cls-24 {
        fill: #fcdf6c;
      }
    </style>
  </defs>
  <g id="Layer_2-2" data-name="Layer 2">
    <path class="cls-9" d="M203.67.19l2.13.27c2.48.31,5.01.88,7.3,1.67.49.17,2.99,1.01,3,1.01,12.65,5.89,7.82,27.39,4.79,37.91-1.81,6.29-4.42,12.33-6.71,18.44,0,.02,0,.03.02.03l20.82-1.93c41.28-2.94,81.99,6.61,122.9,9.62,27.87,2.05,42.5-4.35,60.96-24.95,1.08-1.21,6.34-8.56,7.18-8.65,0,0,.01,0,.02.01,2.34,6.26,4.12,12.69,4.58,19.41.17,2.52-.2,5.18-.02,7.71.05.71-.37,1.39.71,1.19,9.12-8.02,17.45-16.87,24.92-26.45,3.58-4.59,6.68-9.64,10.23-14.22.31-.4,0-.88,1.1-.6.06,4.98,1.24,10.17,1.46,15.1,1.52,34.09-15.46,68.53-37.92,93.11-.17.18-.29.4-.34.65l-.09.36c-.07.3-.05.61.06.89,22.85,58.44,43.31,119.08,53.96,181.17,2.78,16.23,5.78,34.56,5.91,50.97,0,1.2-.37,3.03.47,3.83,0,0,0,.01,0,.02v31.66s0,.01,0,.02c-.82.66-.46,2.31-.47,3.35-.24,30.82-13.27,67.21-34.07,90.01-31.16,34.15-91.4,49.28-135.85,55.43-3.14.43-6.44.59-9.6.96-36.38,4.3-69.66,5-106.08.48-2.11-.26-4.72-.19-6.72-.48-45.22-6.47-115.93-25.09-150.25-55.91C-6.75,443,3.02,339.36,13.12,273.44c4.18-27.29,9.82-54.35,16.22-81.17,0,0,0-.01,0-.02-7.7-12.48-16.53-24.51-22.47-38-3.35-7.62-5.28-15.04-6.79-23.21,0,0,0,0,0,0v-9.12s0,0,0,0c1.58-8.47,3.68-16.41,7.12-24.32.88-2.03,6.52-11.83,5.79-13.05,0,0,0,0-.01-.01-14.87-6.43-1.26-30.6,11.79-28.81,3.53.48,5.17,3.24,8.16,4.29,0,0,0,0,0,0,19.16-10.39,45.1-19.47,66.99-14.18,12.49,3.02,23.78,11.24,31.42,21.34,0,0,.02,0,.03,0,12.28-24.83,24.85-54.72,52.67-65.23l3.64-.98L193.04,0h0s7.56,0,7.56,0l3.07.19ZM148.9,77.94c.12-.15.29-.26.46-.34,8.21-4.12,17.45-6.41,26.3-8.82s22.42-4.37,30.73-7.67c1.1-.44,1.49-.66,2.23-1.61,1.78-2.33,4.33-8.88,5.43-11.85,5.47-14.83,9.89-39.13-12.18-41.34-34.73-3.48-53.94,38.04-64.38,64.74,0,0,0,0,0,0-.76,3.44-6.64,8.25-10.01,3.67-.83-1.12-8.17-10.05-10.23-11.81-16-13.62-23.27-15.53-44.31-12.36-14.3,2.15-30.38,7.17-42.38,15.22-3.39-8.42-12.57-6.48-16.96.32-4.89,7.57-4.59,15.31,5.65,16.71.02,0,.02.02.02.03-10.9,17.6-16.99,39.76-11.26,60.22,4.69,16.71,15.7,32.13,25.76,45.99,0,0,0,0,0,0,1.04.61,3.12-.85,4.19-1.34.02,0,.03,0,.03.03-7.5,30.83-14.07,61.95-18.63,93.4-9.26,63.96-18.18,164.02,38.09,209.43,32.43,26.17,89.94,41.07,130.7,48.34,67.34,12.01,160.06,4.97,222.65-23.76,84.38-38.73,79.94-131.33,65.29-209.93-11.26-60.4-31.37-119.51-54.08-176.37-.08-.42.06-.76.23-1.13.43-.93,5.75-6.01,6.96-7.47,18.49-22.35,32.02-49.8,32.65-79.37,0-.02-.02-.03-.04-.02-4.1,3.9-7.37,8.75-11.23,12.93-8.77,9.5-18.78,17.83-30.21,23.97-.02,0-.04,0-.03-.02l3.11-17.47s0,0,0,0l-.48-11.22s-.02-.03-.04-.01c-11.66,11.61-27.73,24.47-44.85,25.88-24.85,2.04-56.72-5.21-82.08-7.67-7.09-.69-14.23-1.31-21.34-1.45-.01,0-.02,0-.02.02-.04,1.82.07,3.67,0,5.49-.77,20.97.25,42.24.98,63.35.28,8.09.34,16.14.94,24.24,0,.01.01.02.02.02,12.06-1.05,23.78,6.12,19.41,19.67-2.73,8.45-9.14,8.94-16.03,4.53-6.08-3.89-7.46-10.72-8.2-17.46,0-.01-.02-.02-.03-.02l-7.15,2.41s-.02.02-.01.03c3.8,10.81,6.71,24.88,1.99,35.8-5.1,11.79-21.91,9.88-24.44-2.13-2.65-12.62,4.27-28.67,15.26-35.45,0,0,.01-.01,0-.02-4.39-9.08-11.94-21.95-23.06-22.72,0,0-.01,0-.01,0-.79,10.16-2.11,30.72-11.07,37.16s-26.61.83-28.17-10.65c-2.61-19.3,16.9-30.44,33.46-32.28,0,0,.02,0,.02-.02.74-8.33.37-16.68.46-25.04.07-7.5.01-19.76-.07-27.26-.07-6.56-.1-13.11-.38-19.66,0-.01-.01-.02-.02-.02-27.39,1.78-54.7,6.4-80.62,15.36.4-.95.25-2.28.97-3.18ZM268.86,65.28h-34.04s-.02.01-.02.02l-.02,72.13s0,0,0,.01c.13.38,5.45,1.68,6.59,2.15,9.24,3.77,16.02,15.41,21.07,23.56,0,0,.02.01.03,0l7.86-3.07.47-.96s0,0,0-.01c-1.47-19.04-1.59-38.08-1.9-57.14-.02-1.13-.5-2.19-.52-3.32-.19-11.11-.08-22.29.5-33.36,0-.01,0-.02-.02-.02ZM228.08,143.05s0,0-.02,0c-12.02,2-27.53,9.21-27.85,23.26-.25,11.05,15.9,15.32,21.63,7.7,3.01-4.01,4.44-15.42,5.2-20.72.2-1.39,1.4-9.76,1.04-10.23ZM277.54,164.16s-.02,0-.02.02c.05,6.5,2.18,14.76,9.59,16.12,3.52.65,4.66-6.41,4.21-9.06-.94-5.59-8.91-7.58-13.79-7.08ZM259.07,171.38c-.38.09-4.98,4.81-5.54,5.51-4.98,6.22-7.13,15.14-6.25,23.03s11.8,9.03,14.63,1.19c2.65-7.37,1.71-20.34-1.17-27.61-.25-.64-.69-2.34-1.67-2.12Z"/>
    <path class="cls-5" d="M216.02,3.13s-2.51-.84-3-1.01c-2.29-.78-4.82-1.35-7.3-1.67l-2.13-.27c-.84-.05-2.22-.14-3.07-.19h-7.56s0,0,0,0l-5.35.97c-1.01.27-2.64.71-3.64.98-27.83,10.52-40.4,40.41-52.67,65.23,0,.01-.02.01-.03,0-7.64-10.1-18.93-18.32-31.42-21.34-21.9-5.29-47.83,3.79-66.99,14.18,0,0,0,0,0,0-2.99-1.06-4.64-3.81-8.16-4.29-13.05-1.79-26.66,22.38-11.79,28.81,0,0,.01,0,.01.01.73,1.22-4.9,11.02-5.79,13.05C3.68,105.51,1.58,113.45,0,121.92c0,0,0,0,0,0v9.12s0,0,0,0c1.51,8.17,3.43,15.59,6.79,23.21,5.94,13.5,22.47,38,22.47,38v.02s107.14-57.16,107.14-57.16c.21-2.31-1.31-19.75,1.69-19.75.44,0,.77-2.15,1.15-2.06l74.89-53.78s-.03-.01-.02-.03c2.3-6.1,4.9-12.15,6.71-18.44,3.04-10.52,7.86-32.03-4.79-37.91Z"/>
    <path class="cls-13" d="M206.39,61.13c-8.87,2.37-21.83,4.41-30.99,6.91-8.85,2.41-17.79,4.81-25.99,8.92-.17.09-.93.63-1.05.78-.73.89-.03,2.45-.43,3.4,25.92-8.96,53.23-13.59,80.62-15.36.01,0,.02,0,.02.02.28,6.55.31,13.11.38,19.66.08,7.5.14,19.76.07,27.26-.08,8.36.28,16.71-.46,25.04,0,0,0,.02-.02.02-16.56,1.84-36.07,12.98-33.46,32.28,1.56,11.48,19.19,17.11,28.17,10.65,8.95-6.44,10.28-27,11.07-37.16,0,0,0-.01.01-.01,11.12.77,18.67,13.65,23.06,22.72,0,0,0,.02,0,.02-10.99,6.78-17.92,22.83-15.26,35.45,2.53,12.01,19.35,13.92,24.44,2.13,4.72-10.92,1.81-25-1.99-35.8,0-.01,0-.02.01-.03l7.15-2.41s.03,0,.03.02c.74,6.74,2.12,13.56,8.2,17.46,6.89,4.41,13.3,3.92,16.03-4.53,4.38-13.55-7.35-20.72-19.41-19.67-.01,0-.02,0-.02-.02-.6-8.1-.66-16.15-.94-24.24-.73-21.1-1.75-42.38-.98-63.35.07-1.83-.04-3.67,0-5.49,0-.01.01-.02.02-.02,7.1.14,14.25.76,21.34,1.45,25.35,2.46,57.23,9.71,82.08,7.67,17.12-1.4,33.19-14.27,44.85-25.88.01-.01.04,0,.04.01l.48,11.22s0,0,0,0l-3.11,17.47s.02.03.03.02c11.42-6.14,21.44-14.47,30.21-23.97,3.86-4.18,7.13-9.02,11.23-12.93.01-.01.04,0,.04.02-.63,29.57-14.15,57.02-32.65,79.37-1.2,1.46-6.53,6.53-6.96,7.47-.17.37-.31.71-.23,1.13,22.72,56.86,42.82,115.97,54.08,176.37,14.65,78.6,19.1,171.2-65.29,209.93-62.59,28.73-155.31,35.78-222.65,23.76-40.76-7.27-98.27-22.18-130.7-48.34C1.18,445.17,10.1,345.1,19.36,281.15c4.55-31.45,11.13-62.57,18.63-93.4,0-.02-.01-.03-.03-.03-1.08.49-3.15,1.95-4.19,1.34,0,0,0,0,0,0l-4.43,3.23s0,.01,0,.02c-6.4,26.82-12.04,53.88-16.22,81.17-10.1,65.92-19.88,169.56,34.95,218.81,34.31,30.82,105.03,49.44,150.25,55.91,2,.29,4.61.22,6.72.48,36.42,4.52,69.7,3.82,106.08-.48,3.16-.37,6.46-.53,9.6-.96,44.46-6.14,104.69-21.28,135.85-55.43,20.8-22.8,33.83-59.19,34.07-90.01,0-1.05-.35-2.7.47-3.35,0,0,0,0,0-.02v-31.66s0-.01,0-.02c-.84-.8-.46-2.63-.47-3.83-.13-16.41-3.13-34.74-5.91-50.97-10.65-62.09-31.11-122.73-53.96-181.17-.11-.28-.13-.59-.06-.89l.09-.36c.06-.24.18-.46.34-.65,22.46-24.59,39.44-59.03,37.92-93.11-.22-4.93-1.4-10.12-1.46-15.1-1.11-.28-.79.21-1.1.6-3.55,4.59-6.65,9.63-10.23,14.22-7.47,9.57-15.8,18.42-24.92,26.45-1.09.2-.66-.47-.71-1.19-.18-2.52.19-5.19.02-7.71-.46-6.72-2.24-13.15-4.58-19.41,0,0,0-.01-.02-.01-.84.09-6.09,7.44-7.18,8.65-18.46,20.6-33.09,27-60.96,24.95-40.92-3-81.62-12.56-122.9-9.62l-20.82,1.93s-.03-.01-.02-.03M227.04,153.31c-.76,5.3-2.19,16.71-5.2,20.72-5.73,7.62-21.88,3.35-21.63-7.7.32-14.05,15.83-21.26,27.85-23.26,0,0,.01,0,.02,0,.35.47-.84,8.85-1.04,10.23ZM261.91,201.13c-2.83,7.85-13.78,6.51-14.63-1.19-.87-7.89,1.27-16.82,6.25-23.03.56-.7,5.16-5.42,5.54-5.51.97-.22,1.41,1.48,1.67,2.12,2.87,7.26,3.82,20.24,1.17,27.61ZM270.8,159.16l-.47.96-7.86,3.07s-.02,0-.03,0c-5.05-8.14-11.83-19.79-21.07-23.56-1.13-.46-6.46-1.76-6.59-2.15,0,0,0,0,0-.01l.02-72.13s0-.02.02-.02h34.04s.02,0,.02.02c-.58,11.07-.69,22.25-.5,33.36.02,1.14.5,2.19.52,3.32.31,19.06.43,38.11,1.9,57.14,0,0,0,0,0,.01ZM277.54,164.18c4.88-.51,12.85,1.49,13.79,7.08.45,2.65-.69,9.71-4.21,9.06-7.42-1.37-9.54-9.62-9.59-16.12,0-.01,0-.02.02-.02Z"/>
    <path class="cls-5" d="M230.71,439.3l.47-3.35c-.82.66-.46,2.31-.47,3.35Z"/>
    <path class="cls-8" d="M320.72,547.2c14.9,8.2,31.9,14.12,46.4,22.96,6.76,4.12,11.56,6.82,4,13.77-8.13,7.47-20.24,12.91-29.73,18.52.03,1.8.56,3.68,2.13,4.72,5.07-5.93,13.88-.74,16.65,4.98,4.71,9.74,4.11,25.95-5.21,32.88-2.88,2.14-5.77,2.15-8.02,3.5-1.04.62-1.22,1.74-1.97,2.35-4.31,3.49-10.28,5.74-15.87,5.3-1.3-.1-2.64-.93-3.25-.88-.77.06-2.18,1.11-3.49,1.29-11.06,1.58-16.55-8-18.94-17.23l-18.7.95,6.25,82.09c1.63-.61,7.27-.95,8.44-.05l3.08,10.6h1.43s1.9-15.16,1.9-15.16l16.83,5.08-.48,1.91c19.79-7.19,37.81-8.12,55.74,4.02,13.09,8.86,21.03,20.94,23.38,36.62.89,5.95,2.97,21.36-3.63,24.53-3.32,1.6-15.16,2.3-19.33,2.51-1.53.07-3.67-.45-4.8.48h-19.68c-1.13-.92-3.27-.42-4.8-.48-20.41-.79-50.41-6.25-68.96-14.8-3.68-1.69-9.07-4.1-9.72-8.52-1.46-10.01-2.59-29.05-1.49-38.85.39-3.49,3.47-3.65,6.03-5.01l.24-4.12-6.74-80.86-20.64-.47,9.19,81.53c2.98.46,8.93.43,9.8,3.88,1.58,6.23.45,13.18.19,19.45-.23,5.55.02,12.9-.95,18.25-.28,1.52-2.56,2.61-3.82,3.38-2.93,1.78-6.91,3.42-10.1,4.78-33.69,14.3-65.81,19.51-102.46,16.09-8.91-.83-30.64-3.24-31.92-14.64-2.16-19.17,3.78-41.06,20.49-51.99,22.49-14.71,50.96-7.64,73.83,2.3l-1.15-2.64,17.22-5.99c.11,2.26.25,4.66.54,6.9.21,1.6.23,3.83,1.14,5.1-.25-5.19,6.2-6.42,10.32-6.24l-7.65-80.43-12.03-1.17c-.94,11.34-7.1,26.32-20.83,24.91-5.51-.57-13.13-.61-18.05-2.58-.92-.37-1.7-1.47-2.21-1.57-.86-.17-5.41,1.02-7.64.86-15.59-1.09-18.09-22.49-12.61-33.77,2.29-4.72,9.07-10.53,14.49-7.46,2.16,1.22,2.03,5.11,3.96,2.11-1.13-2.66-.51-4.77.17-7.42-8.53-4.28-18.63-8.95-25.91-15.15-12.58-10.7-6.97-17.64,4.37-25.4l42.2-24.76c2,.29,4.61.22,6.72.48-.6,8.71-.28,17.43-.46,26.18-.33,16.24-1.1,32.71-.02,48.95.11,1.64-.44,5.8.47,6.73.68.69,7.78,1.49,9.37,1.67,9.88,1.08,19.87,1.11,29.78,1.42,21.08.66,43.79,1.76,64.79-.46.55-.06,2.04-.22,2.17-.8l-.02-84.16c3.16-.37,6.46-.53,9.6-.96ZM317.36,589.92h8.88c1.39,0,3.56,1.86,5.63,1.34s13.39-7.34,16.05-8.94c.76-.46,3.68-1.87,3.5-2.69-.24-1.09-3.84-2.71-4.94-3.24-9.35-4.44-19.86-7.56-29.12-12.4v25.92ZM198.32,570.72l-27.77,17.1c.15,1.74,1.61,2.4,2.85,3.26,2.33,1.61,18.04,10.34,19.99,10.73,1.64.33,3.37-.28,4.93.59v-31.68ZM317.36,594.72c-.01.16,0,.32,0,.48-.05.95.03,1.92,0,2.88-.02.8.01,1.6,0,2.4-.11,7.92.06,15.86.02,23.78-1.03,4.33.19,9.08-1.7,13.18-2.44,1.21-5.25,1.23-7.92,1.44-.63.05-1.29-.04-1.92,0,1,7.7,7.01,17.14,15.97,15.25.91-.19,1.79-1.13,2.58-1.21.84-.08,2.11.77,3.29.84,5.13.34,9.3-.37,13.64-3.17,3.58-2.31,3.46-2.57,7.59-4.41,6.39-2.86,8.75-7.72,10.7-14.02.04-.15-.04-.33,0-.48.01-.04.41-.19.48-.48,1.53-6.38.71-14.03-3.36-19.44-3.02-4.02-11.13-6.74-12.48-.24-1.1-1.48-2.5-2.11-3.84-4.8-2.41-4.84-1.79-5.98-6.24-10.08s-7.56-5.43-13.68-4.8c-2.71.28-2.9.43-3.12,2.88ZM174.8,625.92c.28-4.73-5.22-6.07-8.64-3.84-1.89,1.23-4.94,5.7-5.85,7.83-4.17,9.83-1.05,25.47,11.37,26.72,2.53.26,5.62-.39,8.05.11,1.45.3,3.94,2.16,5.85,2.79,4.71,1.54,6.67.56,10.53.95,1.09.11,1.8,1.03,3.38.99,2.45-.06,9.11-3.17,11.05-4.84,3.46-2.97,5.58-8.44,6.36-12.84.36-2.05,1.49-5.53-.83-5.87-2.96-.44-14.84-.82-16.24-3.2-.84-1.42-1.43-9.72-1.54-11.9-.26-5.5.27-11.08.02-16.58-.04-.8.03-1.61,0-2.4-8.58-.32-19.14,5.22-19.73,14.64-.07,1.06.57,2.23.28,3.09s-2.94,4.12-4.08,4.34ZM225.04,737.93c-2.7-2.56-6.6-8.34-9.09-9.87-9.41-5.75-33.22-12.36-44.24-12.88-29.77-1.4-52.02,20.16-51.16,50.2.27,9.45,3.47,12.87,12.13,15.7,21.18,6.94,60.11,4.97,81.69-.64,13.06-3.4,33.26-10.36,44.76-17.16,4.51-2.67,4.56-3.09,4.95-8.49.59-8.15.96-18.31.02-26.41-.13-1.11-.3-1.9-1.27-2.57-3.48-2.41-18.6-2.95-22.98-2.46-5.48.61-3.32,3.32-6.02,5.5-1.01.81-2.53,1.3-3.82,1.22-.01,6.85,7.55,4.51,12.11,3.71,3.47-.61,6.86-2.11,10.45-1.79.86.88-1.86,5.35-2.49,6.4-1.89,3.17-4.74,6.39-6.92,9.41-.91.22-15.22-6.93-16.77-8.11-.68-.52-.87-1.31-1.35-1.77ZM361.04,723.84c-10.67-3.1-22.02-1.27-32.28,2.52-2.37.88-9.97,3.9-11.66,5.14-2.54,1.88-6.2,8.5-9.23,11.06-4.27,3.61-11.86,5.71-16.76,8.55-.78.07-1.14-.68-1.58-1.14-1.37-1.42-9.78-13.54-8.65-14.62,6.23.18,12.41,2.18,18.58,3.24l3.5-1.33c.38-1.59-1.12-.63-1.93-1.18-1.94-1.3-.39-10.77-4.53-11.32s-20.49,1.43-23.76,4.12c-2.33,1.92-2.01,9.46-1.96,12.48.08,5.52.52,12.19.99,17.73.28,3.31.35,9.2,2.56,11.6,4.88,5.29,29.03,12.24,36.7,13.94,21.42,4.75,56.05,7.22,77.47,3.37,6.58-1.18,9.76-1.06,10.4-8.32,2.08-23.56-10.84-43.31-31.62-53.46-2.21-1.08-3.87-1.71-6.24-2.4ZM232.4,735.85l-2.88-.26-1.41,3.09,2.38.79,1.91-3.62ZM302.97,743.04l2.87-1.69c-.75-1.85-2.58-3.54-4.35-1.85l1.48,3.55Z"/>
    <path class="cls-18" d="M78.8,166.08c19.33-12.1,27.81-21.45,41.19-39.69,9.73-13.26,21.53-30.21,27.93-45.27,25.93-8.96,53.25-13.59,80.64-15.36.37,8.4.31,16.81.46,25.22.13,7.13.09,13.96,0,21.08-.11,8.58.29,17.15-.46,25.7-16.56,1.84-36.09,12.98-33.47,32.28,1.56,11.48,19.19,17.11,28.17,10.65s10.28-27.02,11.07-37.17c11.13.77,18.69,13.66,23.08,22.74-11,6.78-17.93,22.84-15.27,35.46s19.35,13.92,24.44,2.13c4.73-10.93,1.8-25.01-2-35.82l7.19-2.42c.74,6.75,2.11,13.59,8.2,17.48,6.89,4.41,13.3,3.92,16.03-4.53,4.38-13.56-7.36-20.73-19.43-19.66-.6-8.1-.66-16.16-.94-24.26-.73-21.1-1.75-42.38-.98-63.35.07-1.84-.04-3.68,0-5.52,7.11.14,14.26.76,21.36,1.45,25.35,2.46,57.23,9.71,82.08,7.67,17.13-1.4,33.22-14.29,44.88-25.91l.48,11.27-3.12,17.52c11.44-6.14,21.47-14.48,30.25-23.99,3.87-4.19,7.15-9.06,11.27-12.97-.61,29.59-14.14,57.07-32.65,79.43-1.2,1.46-6.53,6.53-6.96,7.47-.17.37-.31.71-.23,1.13,22.72,56.86,42.82,115.97,54.08,176.37,14.65,78.6,19.1,171.2-65.29,209.93-62.59,28.73-155.31,35.78-222.65,23.76-40.76-7.27-98.27-22.18-130.7-48.34C1.18,445.14,10.1,345.08,19.36,281.12c4.56-31.46,11.14-62.6,18.64-93.44,8.8-3.9,17.4-8.5,25.92-12.96M50.46,337.66c1.66-37.01,6.56-77.83,14.65-113.99M416.1,170.02c-1.46.33-3.36,2.48-3.81,3.87-1.45,4.43,1.18,7.67,2.52,11.62,7.12,20.98,11.55,42.47,18.1,63.5,1.54,4.95,4.99,14.12,11.66,12.88,8.7-1.61,5.24-15.36,3.98-21.32-3.58-16.93-10.05-39.38-16.73-55.27-2.75-6.54-6.65-17.35-15.73-15.27ZM344.72,257.28c-2.65,1.72-5.4,4.71-6.35,7.81-2.31,7.59,9.14,1.64,12.77.76,7.09-1.71,12.32-1.71,19.5-1.86l3.36.48c1.06-5.13-4.06-9.69-8.31-11.61-6.92-3.13-15.59-.62-20.97,4.41ZM152.62,275.65c-5.09.59-17.65,7.1-16.7,13.04.56,3.47,8.23.86,10.79.73,4.93-.26,10.91-.17,15.88,0,2.17.07,9.95,1.38,11.26.74,4.88-2.36-3.23-8.86-5.61-10.23-4.69-2.69-10.14-4.92-15.61-4.28ZM157.42,325.58c-49.47.93-83.15,52.52-58.06,97.14,25.19,44.8,92.97,44.82,118.72.48s-9.88-98.57-60.66-97.62ZM357.1,325.58c-49.47.93-83.15,52.52-58.06,97.14,25.19,44.8,92.97,44.82,118.72.48,26.48-45.58-9.88-98.57-60.66-97.62ZM431.48,434.04c-11.87,1.99-5.61,20.29,5.4,16.44,10.2-3.57,3.99-18.02-5.4-16.44ZM226.03,436.41c-3.65,1.08-3.47,12.86-3.22,15.98,1.75,21.82,19.75,40.65,42.48,32.9,17.13-5.85,24.65-19.65,31.36-35.39.07-1.19-3.09-1.48-4.09-1.55-16.31-1.17-32.61-3.72-48.65-7.47-4.65-1.09-11.63-3.87-15.71-4.46-.77-.11-1.4-.25-2.18-.02ZM88.76,446.52c-10.96,1.78-10.21,21.04,3.61,18.49,4.78-.88,7.66-7.1,6.96-11.53-.74-4.68-6.07-7.69-10.58-6.96ZM413.23,447.48c-12.46,2.11-11.32,21.48,3.2,19.99,14.84-1.52,9.47-22.13-3.2-19.99ZM108.43,458.51c-7.18,1.33-9.4,13.56-2.42,17.08,8.03,4.05,15.11-4.09,13.48-12.04-.94-4.58-7.14-5.76-11.06-5.04Z"/>
    <path class="cls-5" d="M311.12,548.16l.02,84.16c-.14.58-1.63.74-2.17.8-21,2.22-43.71,1.12-64.79.46-9.91-.31-19.9-.34-29.78-1.42-1.6-.18-8.69-.98-9.37-1.67-.92-.93-.36-5.09-.47-6.73-1.07-16.24-.3-32.7.02-48.95.18-8.75-.14-17.47.46-26.18,36.42,4.52,69.7,3.82,106.08-.48ZM269.84,559.2h-24.48l-11.52,40.32,24.77-5.77,1.92-.57-6.05,33.22,33.12-47.75c.16-.77.05-.76-.63-.64-11.95,2.15-23.89,4.56-35.85,6.63,5.98-7.43,13.44-15.56,18.15-23.85.31-.54.73-.87.57-1.59Z"/>
    <path class="cls-24" d="M268.88,65.28c-.58,11.08-.69,22.26-.5,33.38.02,1.14.5,2.19.52,3.32.31,19.06.43,38.11,1.9,57.15l-.48.96-7.88,3.08c-5.05-8.14-11.83-19.8-21.08-23.57-1.14-.46-6.5-1.77-6.59-2.15l.02-72.16h34.09Z"/>
    <path class="cls-24" d="M228.08,143.04c.37.4-.84,8.85-1.04,10.24-.76,5.3-2.19,16.71-5.2,20.72-5.73,7.62-21.88,3.35-21.63-7.7.32-14.05,15.84-21.26,27.86-23.26Z"/>
    <path class="cls-24" d="M259.07,171.38c.97-.22,1.41,1.48,1.67,2.12,2.87,7.26,3.82,20.24,1.17,27.61-2.83,7.85-13.78,6.51-14.63-1.19s1.27-16.82,6.25-23.03c.56-.7,5.16-5.42,5.54-5.51Z"/>
    <path class="cls-24" d="M277.52,164.16c4.88-.51,12.86,1.48,13.8,7.08.45,2.65-.69,9.71-4.21,9.06-7.42-1.37-9.55-9.64-9.59-16.14Z"/>
    <path class="cls-6" d="M78.67,164.33c1.2.07,1.71,1.69,1.37,3.23-4.15,18.7-10.72,37.33-14.93,56.12-8.1,36.15-13,76.98-14.65,113.99-.44,9.75.44,20.64-.95,30.25-.75,5.23-3.85,11.6-8.55,4.73-4.24-6.2-3.63-31.39-3.46-39.78.97-49.47,8.17-105.93,24.37-152.75.52-1.5,1.16-4.25,2.05-5.39,1.66-.87,2.45-3.02,4.24-4.12.48-.29,1.74-.69,2.49-1.12,2.88-.52,5.85-3.37,8.02-5.15Z"/>
    <path class="cls-22" d="M225.04,737.93c.48.46.67,1.25,1.35,1.77,1.54,1.19,15.86,8.33,16.77,8.11,2.19-3.02,5.04-6.23,6.92-9.41.62-1.05,3.35-5.52,2.49-6.4-3.59-.32-6.98,1.18-10.45,1.79-4.56.8-12.12,3.14-12.11-3.71,1.29.08,2.82-.41,3.82-1.22,2.7-2.18.54-4.89,6.02-5.5,4.39-.49,19.5.05,22.98,2.46.97.67,1.14,1.46,1.27,2.57.94,8.1.58,18.26-.02,26.41-.39,5.39-.44,5.82-4.95,8.49-11.5,6.8-31.7,13.76-44.76,17.16-21.57,5.61-60.51,7.59-81.69.64-8.66-2.84-11.86-6.26-12.13-15.7-.87-30.05,21.39-51.61,51.16-50.2,11.02.52,34.83,7.13,44.24,12.88,2.49,1.52,6.39,7.31,9.09,9.87ZM189.2,765.12c-.18-9.99-.48-20.31-2.82-30.06-2.39-9.97-7.51-21.16-19.74-19.37,8.85,6.12,13.05,14.03,15.13,24.46.71,3.55,3.31,23.03,1.94,25-5.79.84-11.89,1.11-17.81.95-4.8-.12-10.53-.53-15.33-.99-8.99-.85-18.04-2.13-26.16-6.24-.64,2.78-1.05,8.8.53,11.23,1.11,1.71,6.33,3.86,8.34,4.62,27.91,10.62,95.87,2.91,121.17-13.73,5.67-3.73,6.26-5.59,5.8-12.68-6.86,1.74-13.44,4.75-20.27,6.85-16.33,5.02-33.75,8.59-50.77,9.95ZM227.12,752.63l-22.55-22.07,9.12,25.44,13.43-3.37ZM198.32,733.44c-.65-.7-.88.04-.96.71-.98,8.4-1.56,16.86-2.88,25.21l13.92-1.92-10.08-23.99Z"/>
    <path class="cls-22" d="M361.04,723.84c-8.41.98-16.68,8.27-19.77,15.99-2.39,5.98-2.41,12.51-3.27,18.81l.95,13.68c-19.83-2.59-39.73-7.35-57.44-16.72-1.28-.68-4.54-3.6-5.92-2.75-1.65,1.02-1.06,10.34-.03,12.06,1.85,3.08,23.41,10.6,27.88,11.96,23.53,7.17,60.5,12.87,84.48,7.21,1.81-.43,5.89-1.25,6.59-3.01.64-1.59,1.39-8.77,1.08-10.44-.1-.55-.17-.97-.79-1.13-14.06,1.27-28.06,2.66-42.19,2.79-2.67.02-5.57.89-8.43-.26-2.05-14.97-.4-34.3,14.13-42.53l8.96-3.28c20.78,10.15,33.69,29.9,31.62,53.46-.64,7.26-3.82,7.14-10.4,8.32-21.42,3.85-56.05,1.38-77.47-3.37-7.67-1.7-31.82-8.65-36.7-13.94-2.21-2.39-2.28-8.28-2.56-11.6-.47-5.54-.91-12.21-.99-17.73-.04-3.02-.37-10.57,1.96-12.48,3.27-2.69,19.45-4.7,23.76-4.12s2.58,10.02,4.53,11.32c.81.54,2.31-.41,1.93,1.18l-3.5,1.33c-6.17-1.06-12.34-3.07-18.58-3.24-1.13,1.09,7.28,13.21,8.65,14.62.44.46.8,1.21,1.58,1.14,4.91-2.84,12.5-4.94,16.76-8.55,3.03-2.56,6.69-9.18,9.23-11.06,1.69-1.25,9.28-4.27,11.66-5.14,10.26-3.8,21.61-5.62,32.28-2.52ZM312.56,762.24l9.12-24.96-21.59,20.88,12.48,4.08ZM331.28,767.04l-3.83-27.83-9.13,24.95,12.96,2.88Z"/>
    <path class="cls-7" d="M361.04,723.84c2.37.69,4.03,1.32,6.24,2.4l-8.96,3.28c-14.53,8.23-16.18,27.56-14.13,42.53,2.87,1.15,5.77.28,8.43.26,14.13-.13,28.13-1.53,42.19-2.79.62.16.69.59.79,1.13.31,1.67-.44,8.85-1.08,10.44-.71,1.75-4.78,2.58-6.59,3.01-23.99,5.66-60.95-.04-84.48-7.21-4.47-1.36-26.03-8.89-27.88-11.96-1.03-1.72-1.62-11.04.03-12.06,1.38-.85,4.65,2.08,5.92,2.75,17.72,9.37,37.61,14.13,57.44,16.72l-.95-13.68c.85-6.3.88-12.83,3.27-18.81,3.09-7.72,11.36-15.01,19.77-15.99Z"/>
    <path class="cls-17" d="M334.16,596.64c4.45,4.1,3.83,5.24,6.24,10.08l-2.4-.48c-.49.51,4.83,8.16,5.51,9.6.6,1.26,1.41,3.11,1.82,4.42.55,1.74,1.39,8.05,2.26,8.78.35.3.53.29.96.23-.06-2.11.16-4.25-.12-6.35-.25-1.86-3.18-10.03-4.2-11.4,1.35-6.5,9.46-3.78,12.48.24,4.07,5.41,4.89,13.06,3.36,19.44l-.48.48c-.04.15.04.33,0,.48-4.78,6.32-10.36,14.37-19.53,10.65-4.88-1.98-9.23-11.08-9.99-11.12-.94-.05-.46,1.34-.38,1.8.92,4.87,5.95,11.91,11.18,12.59.7.77-2.61,2.54-3.18,2.82-5.79,2.82-12.27,2.66-16.75-2.33-1.16-1.29-3.19-6.23-4.3-6.26-1.17,4.77,2.61,8.38,5.52,11.52-8.1,1.46-12.33-6.43-14.4-12.96,2.68-.2,5.48-.23,7.92-1.44,1.89-4.11.67-8.85,1.7-13.18.04-7.92-.13-15.86-.02-23.78,1.96-1.07,3.62-1.11,5.79-.74,2.99.51,4.88,2.86,7.66,3.86-2.18-5.33-8.23-6.88-13.44-5.52.03-.96-.05-1.93,0-2.88l.48-.48c3.16-1.01,5.87-.96,9.01-.13,2.36.62,5.01,2.66,7.31,2.05Z"/>
    <path class="cls-17" d="M198.32,606.24c.25,5.5-.28,11.08-.02,16.58.1,2.18.7,10.49,1.54,11.9,1.4,2.38,13.28,2.76,16.24,3.2-1.07,3.73-1.94,8.11-3.47,11.65-2.4,5.53-5.64,6.87-10.93,8.99l-.48-.48c2.47-1.86,3.66-4.18,4.32-7.2-.61-.63-4.82,4.8-5.79,5.49-6.03,4.23-11.47,1.43-17.73-.21,3.15-3.04,7.08-5.76,7.44-10.55-2.81,2.34-5.41,7.34-9.24,8.04-1.93.35-6.94.33-8.89,0-10.75-1.82-11.79-18.29-7.74-26.23.87-1.71,3.31-3.46,2.59-5.33,3.42-2.23,8.92-.89,8.64,3.84-.21,3.52-9.35,11.06-6,16.32,2.45-3.15,3.67-7.08,5.8-10.52,1.49-2.41,3.39-4.37,4.92-6.6,2.08-3.03,3.52-6.5,6.32-9.04-2.23-.14-3.57,2.67-5.27,3.6.91-8.58,9.8-13.45,17.76-13.44Z"/>
    <path class="cls-12" d="M359.6,632.16c-1.94,6.3-4.31,11.16-10.7,14.02-4.13,1.85-4.01,2.11-7.59,4.41-4.34,2.8-8.51,3.51-13.64,3.17-1.18-.08-2.45-.93-3.29-.84-.79.08-1.66,1.02-2.58,1.21-8.96,1.89-14.98-7.56-15.97-15.25.63-.04,1.29.05,1.92,0,2.07,6.53,6.3,14.42,14.4,12.96-2.9-3.14-6.68-6.75-5.52-11.52,1.11.02,3.14,4.96,4.3,6.26,4.48,4.99,10.96,5.15,16.75,2.33.57-.28,3.88-2.05,3.18-2.82-5.23-.68-10.26-7.72-11.18-12.59-.09-.46-.56-1.85.38-1.8.76.04,5.11,9.14,9.99,11.12,9.17,3.72,14.75-4.33,19.53-10.65Z"/>
    <path class="cls-12" d="M174.8,625.92c1.14-.23,3.8-3.51,4.08-4.34s-.35-2.04-.28-3.09c.59-9.42,11.15-14.97,19.73-14.64.03.8-.04,1.6,0,2.4-7.96-.01-16.84,4.86-17.76,13.44,1.71-.93,3.05-3.74,5.27-3.6-2.8,2.54-4.24,6.01-6.32,9.04-1.53,2.23-3.43,4.18-4.92,6.6-2.13,3.44-3.35,7.37-5.8,10.52-3.35-5.26,5.79-12.8,6-16.32Z"/>
    <path class="cls-12" d="M340.4,606.72c1.34,2.69,2.74,3.32,3.84,4.8,1.02,1.37,3.94,9.55,4.2,11.4.28,2.11.06,4.24.12,6.35-.43.06-.62.07-.96-.23-.86-.74-1.71-7.04-2.26-8.78-.41-1.31-1.22-3.16-1.82-4.42-.69-1.45-6-9.09-5.51-9.6l2.4.48Z"/>
    <path class="cls-11" d="M334.16,596.64c-2.3.6-4.95-1.44-7.31-2.05-3.14-.82-5.85-.87-9.01.13h-.48c.22-2.45.41-2.6,3.12-2.88,6.12-.64,9.36.83,13.68,4.8Z"/>
    <path class="cls-12" d="M317.36,598.08c5.22-1.36,11.26.19,13.44,5.52-2.77-1-4.67-3.35-7.66-3.86-2.17-.37-3.83-.33-5.79.74.01-.8-.02-1.6,0-2.4Z"/>
    <polygon class="cls-22" points="232.4 735.85 230.5 739.47 228.12 738.68 229.52 735.58 232.4 735.85"/>
    <path class="cls-22" d="M302.97,743.04l-1.48-3.55c1.77-1.69,3.61,0,4.35,1.85l-2.87,1.69Z"/>
    <path class="cls-12" d="M317.36,595.2c0-.16-.01-.32,0-.48h.48l-.48.48Z"/>
    <path class="cls-12" d="M359.6,631.68l.48-.48c-.07.29-.47.44-.48.48Z"/>
    <path class="cls-19" d="M357.1,325.58c50.78-.95,87.14,52.04,60.66,97.62-25.76,44.34-93.53,44.32-118.72-.48-25.09-44.62,8.59-96.21,58.06-97.14ZM343.67,344.3c-36.57,2.91-56.62,44.43-35.81,74.89,19.92,29.16,64.41,27.15,81.41-3.85,18.31-33.37-7.71-74.06-45.6-71.04Z"/>
    <path class="cls-19" d="M157.42,325.58c50.78-.95,87.14,52.04,60.66,97.62-25.76,44.34-93.53,44.32-118.72-.48-25.09-44.62,8.59-96.21,58.06-97.14ZM161.27,344.3c-34.82,2.79-55.15,41.44-37.55,71.82,18.44,31.82,64.91,31.64,83.15-.3s-7.45-74.58-45.6-71.52Z"/>
    <path class="cls-21" d="M226.05,436.34c.78-.23,1.41-.09,2.18.02,4.08.59,11.06,3.37,15.71,4.46,16.03,3.75,32.34,6.3,48.65,7.47.99.07,4.16.36,4.09,1.55-6.71,15.74-14.23,29.54-31.36,35.39-22.73,7.76-40.73-11.08-42.48-32.9-.25-3.12-.43-14.9,3.22-15.98Z"/>
    <path class="cls-10" d="M416.1,170.02c9.07-2.08,12.98,8.73,15.73,15.27,6.68,15.9,13.15,38.35,16.73,55.27,1.26,5.96,4.72,19.71-3.98,21.32-6.67,1.24-10.12-7.93-11.66-12.88-6.55-21.02-10.98-42.52-18.1-63.5-1.34-3.95-3.97-7.2-2.52-11.62.45-1.38,2.35-3.53,3.81-3.87Z"/>
    <path class="cls-21" d="M152.62,275.65c5.47-.64,10.92,1.59,15.61,4.28,2.39,1.37,10.5,7.87,5.61,10.23-1.31.63-9.09-.67-11.26-.74-4.97-.17-10.95-.26-15.88,0-2.56.14-10.23,2.75-10.79-.73-.95-5.94,11.6-12.45,16.7-13.04Z"/>
    <path class="cls-21" d="M344.72,257.28c4.53-2.95,12.53-5.43,17.9-4.22.73.16,2.88,1.59,3.66,2.1.96.64,5.83,4.62,6.24,5.28.65,1.05.4,2.46,1.01,3.55-.96.02-1.92-.02-2.88,0-7.18.15-12.41.15-19.5,1.86-3.63.87-15.08,6.83-12.77-.76.95-3.1,3.7-6.09,6.35-7.81Z"/>
    <path class="cls-1" d="M413.23,447.48c12.67-2.15,18.04,18.46,3.2,19.99-14.51,1.49-15.66-17.88-3.2-19.99Z"/>
    <path class="cls-1" d="M88.76,446.52c4.5-.73,9.84,2.28,10.58,6.96.7,4.43-2.18,10.65-6.96,11.53-13.82,2.54-14.57-16.72-3.61-18.49Z"/>
    <path class="cls-1" d="M108.43,458.51c3.91-.72,10.12.46,11.06,5.04,1.63,7.95-5.45,16.1-13.48,12.04-6.98-3.52-4.76-15.76,2.42-17.08Z"/>
    <path class="cls-1" d="M431.48,434.04c9.39-1.58,15.6,12.87,5.4,16.44-11.01,3.85-17.27-14.44-5.4-16.44Z"/>
    <path class="cls-3" d="M344.72,257.28c5.39-5.03,14.06-7.54,20.97-4.41,4.25,1.93,9.37,6.48,8.31,11.61l-3.36-.48c.96-.02,1.92.02,2.88,0-.61-1.09-.36-2.5-1.01-3.55-.41-.66-5.27-4.64-6.24-5.28-.77-.52-2.93-1.94-3.66-2.1-5.37-1.21-13.37,1.27-17.9,4.22Z"/>
    <path class="cls-16" d="M269.84,559.2c.16.72-.27,1.05-.57,1.59-4.71,8.29-12.17,16.41-18.15,23.85,11.97-2.07,23.9-4.48,35.85-6.63.69-.12.79-.13.63.64l-33.12,47.75,5.8-33.01-1.67.36-24.77,5.77,11.52-40.32h24.48Z"/>
    <path class="cls-7" d="M189.2,765.12c17.02-1.36,34.44-4.94,50.77-9.95,6.83-2.1,13.41-5.11,20.27-6.85.46,7.09-.13,8.95-5.8,12.68-25.29,16.64-93.26,24.35-121.17,13.73-2.01-.76-7.23-2.91-8.34-4.62-1.58-2.42-1.17-8.45-.53-11.23,8.11,4.1,17.17,5.38,26.16,6.24,4.81.46,10.53.86,15.33.99,5.92.15,12.02-.12,17.81-.95,1.37-1.97-1.23-21.45-1.94-25-2.08-10.44-6.28-18.34-15.13-24.46,12.23-1.79,17.35,9.4,19.74,19.37,2.34,9.76,2.63,20.08,2.82,30.06Z"/>
    <polygon class="cls-23" points="227.12 752.63 213.69 756 204.57 730.56 227.12 752.63"/>
    <path class="cls-23" d="M198.32,733.44l10.08,23.99-13.92,1.92c1.32-8.35,1.89-16.81,2.88-25.21.08-.67.3-1.42.96-.71Z"/>
    <polygon class="cls-23" points="331.28 767.04 318.32 764.15 327.45 739.2 331.28 767.04"/>
    <polygon class="cls-23" points="312.56 762.24 300.08 758.16 321.68 737.28 312.56 762.24"/>
    <path class="cls-15" d="M201.68,658.56c-.73.29-1.4,1.17-2.4.96.19-.94,1.36-1.01,1.92-1.44l.48.48Z"/>
    <path class="cls-11" d="M166.16,622.08c.72,1.88-1.71,3.62-2.59,5.33-4.05,7.94-3.01,24.42,7.74,26.23,1.95.33,6.97.35,8.89,0,3.82-.7,6.42-5.7,9.24-8.04-.36,4.78-4.3,7.51-7.44,10.55,6.26,1.64,11.7,4.45,17.73.21.97-.68,5.18-6.12,5.79-5.49-.65,3.02-1.85,5.34-4.32,7.2-.56.43-1.73.5-1.92,1.44,1,.21,1.67-.66,2.4-.96,5.29-2.12,8.52-3.46,10.93-8.99,1.54-3.53,2.41-7.92,3.47-11.65,2.32.34,1.19,3.82.83,5.87-.78,4.4-2.9,9.87-6.36,12.84-1.94,1.67-8.6,4.78-11.05,4.84-1.58.04-2.29-.88-3.38-.99-3.86-.38-5.83.59-10.53-.95-1.91-.63-4.41-2.49-5.85-2.79-2.42-.5-5.52.14-8.05-.11-12.42-1.25-15.54-16.89-11.37-26.72.9-2.13,3.95-6.6,5.85-7.83Z"/>
    <path class="cls-3" d="M343.67,344.3c37.89-3.02,63.91,37.67,45.6,71.04-17.01,31-61.49,33.01-81.41,3.85-20.81-30.46-.75-71.97,35.81-74.89Z"/>
    <path class="cls-3" d="M161.27,344.3c38.16-3.06,64.71,38.08,45.6,71.52s-64.71,32.12-83.15.3c-17.6-30.38,2.72-69.03,37.55-71.82Z"/>
    <path class="cls-20" d="M264.56,463.68c-13.92,3.7-17.64-4.84-21.72-15.84-.2-.55-.32-1.14-.35-1.72-.01-.23-.03-.46,0-.68.25-.88,1.08-1.04,1.92-.96,10.65,2.27,21.29,4.7,32.16,5.76-1.31,5.54-5.41,9.61-10.08,12.48"/>
    <path class="cls-15" d="M234.8,470.88c10.51-3.2,24.26-1.8,27.76,10.41.3,1.05-3.01,1.49-3.76,1.59-8.34,1.16-19.85-3.65-24.47-10.81-.72-1.11-.46-.37.47-1.19Z"/>
    <g>
      <path class="cls-14" d="M68.82,172.17,63.39,174.97c-8.43,4.42-16.94,8.96-25.65,12.82-.72.32-1.91,1.1-2.93,1.39-.64.18-1.32-.07-1.71-.6-9.95-13.71-20.74-28.94-25.36-45.43-5.53-19.72-.07-41.04,10.11-58.31.54-.91.04-2.08-.99-2.35-8.13-2.14-8.05-9.29-3.53-16.3,4.11-6.37,12.41-8.48,16.24-1.81.45.78,1.48.99,2.24.5,11.82-7.47,27.15-12.17,40.86-14.23,21.04-3.16,29.7-2.01,45.71,11.61,2.06,1.75,9.95,9.72,11.05,10.57.1.08,7.15-1.74,7.39-1.84.58-.26.7-.64.94-1.23,10.56-26.72,29.7-66.78,63.84-63.36,22.07,2.21,17.65,26.51,12.18,41.34-1.09,2.97-3.35,8.59-4.81,11.14-.77,1.35-.72,1.88-2.1,2.2-8.77,1.99-22.31,5.3-31.47,7.8-7.77,2.12-15.85,4.15-23.27,7.4-2.08.91-3.64,2.69-4.42,4.82-.01.04-.03.08-.05.12-6.39,15.06-18.2,32.01-27.93,45.27-13.38,18.23-21.86,27.58-41.19,39.69"/>
      <path class="cls-2" d="M127.28,77.28l9.12-3.36c-4.27,17.82-13.24,34.91-24.08,49.6-19.32,26.18-46.22,44.38-76,56.96.11-3.04,1.82-6.55,3.04-9.44,1.89-4.5,4.08-8.94,6.61-13.11l-.28-1.44c1.18.07,1.22-.73,1.69-1.43,21.24-31.72,46.05-59.25,79.91-77.77Z"/>
      <path class="cls-4" d="M127.28,77.28c-33.86,18.52-58.67,46.05-79.91,77.77-.47.7-.51,1.5-1.69,1.43-8.69-17.65-22.79-34.04-26.93-53.54-.31-1.45-.34-2.94-.06-4.4l3.47-18.38c-8.43,2.1-10.54-4.08-7.44-11.04,2.93-6.58,13.18-7.02,12.48,1.92,13.51-9.17,29.03-15.16,45.2-17.68,7.97-1.24,20.02-2.7,27.63.06,4.13,1.49,13.11,9.75,16.7,13.06s7.12,7.16,10.55,10.81ZM58.16,85.92l5.76-24.95-16.77,14.11,5.26,25.25,7.19-5.76,6,27.36,18.48-35.51-15.6,12.48,3.11-23.52-13.43,10.56Z"/>
      <polygon class="cls-12" points="58.16 85.92 71.6 75.36 68.49 98.88 84.08 86.4 65.6 121.92 59.6 94.56 52.41 100.32 47.15 75.07 63.92 60.96 58.16 85.92"/>
    </g>
  </g>
</svg>